<?xml version="1.0" encoding="UTF-8" standalone="no"?>
<!-- Created with Inkscape (http://www.inkscape.org/) -->

<svg
   width="273.06476mm"
   height="146.12016mm"
   viewBox="0 0 273.06475 146.12016"
   version="1.1"
   id="svg1"
   xml:space="preserve"
   xmlns="http://www.w3.org/2000/svg"
   xmlns:svg="http://www.w3.org/2000/svg"><defs
     id="defs1"><clipPath
       clipPathUnits="userSpaceOnUse"
       id="clipPath93"><path
         d="m 5518.83,1045.26 c 0,-8.71 -48.61,-15.78 -108.56,-15.78 -59.95,0 -108.55,7.07 -108.55,15.78 0,1.08 -478.14,267.69 -476.74,268.7 10,7.22 47.41,616.14 452.65,616.15 722.47,0.01 657.06,-686.85 670.75,-693.28 3.13,-1.48 -429.55,-189.93 -429.55,-191.57"
         transform="translate(0,2.5e-5)"
         id="path93" /></clipPath><clipPath
       clipPathUnits="userSpaceOnUse"
       id="clipPath95"><path
         d="m 5518.83,1045.26 c 0,-8.71 -48.61,-15.78 -108.56,-15.78 -59.95,0 -108.55,7.07 -108.55,15.78 0,1.08 -478.14,267.69 -476.74,268.7 10,7.22 47.41,616.14 452.65,616.15 722.47,0.01 657.06,-686.85 670.75,-693.28 3.13,-1.48 -429.55,-189.93 -429.55,-191.57"
         transform="translate(0,2.5e-5)"
         id="path95" /></clipPath><clipPath
       clipPathUnits="userSpaceOnUse"
       id="clipPath97"><path
         d="m 5518.83,1045.26 c 0,-8.71 -48.61,-15.78 -108.56,-15.78 -59.95,0 -108.55,7.07 -108.55,15.78 0,1.08 -478.14,267.69 -476.74,268.7 10,7.22 47.41,616.14 452.65,616.15 722.47,0.01 657.06,-686.85 670.75,-693.28 3.13,-1.48 -429.55,-189.93 -429.55,-191.57"
         transform="translate(0,2.5e-5)"
         id="path97" /></clipPath><clipPath
       clipPathUnits="userSpaceOnUse"
       id="clipPath99"><path
         d="m 5518.83,1045.26 c 0,-8.71 -48.61,-15.78 -108.56,-15.78 -59.95,0 -108.55,7.07 -108.55,15.78 0,1.08 -478.14,267.69 -476.74,268.7 10,7.22 47.41,616.14 452.65,616.15 722.47,0.01 657.06,-686.85 670.75,-693.28 3.13,-1.48 -429.55,-189.93 -429.55,-191.57"
         transform="translate(0,2.5e-5)"
         id="path99" /></clipPath><clipPath
       clipPathUnits="userSpaceOnUse"
       id="clipPath101"><path
         d="m 5518.83,1045.26 c 0,-8.71 -48.61,-15.78 -108.56,-15.78 -59.95,0 -108.55,7.07 -108.55,15.78 0,1.08 -478.14,267.69 -476.74,268.7 10,7.22 47.41,616.14 452.65,616.15 722.47,0.01 657.06,-686.85 670.75,-693.28 3.13,-1.48 -429.55,-189.93 -429.55,-191.57"
         transform="translate(0,2.5e-5)"
         id="path101" /></clipPath><clipPath
       clipPathUnits="userSpaceOnUse"
       id="clipPath103"><path
         d="m 5518.83,1045.26 c 0,-8.71 -48.61,-15.78 -108.56,-15.78 -59.95,0 -108.55,7.07 -108.55,15.78 0,1.08 -478.14,267.69 -476.74,268.7 10,7.22 47.41,616.14 452.65,616.15 722.47,0.01 657.06,-686.85 670.75,-693.28 3.13,-1.48 -429.55,-189.93 -429.55,-191.57"
         transform="translate(0,2.5e-5)"
         id="path103" /></clipPath><clipPath
       clipPathUnits="userSpaceOnUse"
       id="clipPath105"><path
         d="m 5518.83,1045.26 c 0,-8.71 -48.61,-15.78 -108.56,-15.78 -59.95,0 -108.55,7.07 -108.55,15.78 0,1.08 -478.14,267.69 -476.74,268.7 10,7.22 47.41,616.14 452.65,616.15 722.47,0.01 657.06,-686.85 670.75,-693.28 3.13,-1.48 -429.55,-189.93 -429.55,-191.57"
         transform="translate(0,2.5e-5)"
         id="path105" /></clipPath><clipPath
       clipPathUnits="userSpaceOnUse"
       id="clipPath107"><path
         d="m 5518.83,1045.26 c 0,-8.71 -48.61,-15.78 -108.56,-15.78 -59.95,0 -108.55,7.07 -108.55,15.78 0,1.08 -478.14,267.69 -476.74,268.7 10,7.22 47.41,616.14 452.65,616.15 722.47,0.01 657.06,-686.85 670.75,-693.28 3.13,-1.48 -429.55,-189.93 -429.55,-191.57"
         transform="translate(0,2.5e-5)"
         id="path107" /></clipPath><clipPath
       clipPathUnits="userSpaceOnUse"
       id="clipPath109"><path
         d="m 5518.83,1045.26 c 0,-8.71 -48.61,-15.78 -108.56,-15.78 -59.95,0 -108.55,7.07 -108.55,15.78 0,1.08 -478.14,267.69 -476.74,268.7 10,7.22 47.41,616.14 452.65,616.15 722.47,0.01 657.06,-686.85 670.75,-693.28 3.13,-1.48 -429.55,-189.93 -429.55,-191.57"
         transform="translate(0,2.5e-5)"
         id="path109" /></clipPath><clipPath
       clipPathUnits="userSpaceOnUse"
       id="clipPath111"><path
         d="m 5518.83,1045.26 c 0,-8.71 -48.61,-15.78 -108.56,-15.78 -59.95,0 -108.55,7.07 -108.55,15.78 0,1.08 -478.14,267.69 -476.74,268.7 10,7.22 47.41,616.14 452.65,616.15 722.47,0.01 657.06,-686.85 670.75,-693.28 3.13,-1.48 -429.55,-189.93 -429.55,-191.57"
         transform="translate(0,2.5e-5)"
         id="path111" /></clipPath><clipPath
       clipPathUnits="userSpaceOnUse"
       id="clipPath113"><path
         d="m 5518.83,1045.26 c 0,-8.71 -48.61,-15.78 -108.56,-15.78 -59.95,0 -108.55,7.07 -108.55,15.78 0,1.08 -478.14,267.69 -476.74,268.7 10,7.22 47.41,616.14 452.65,616.15 722.47,0.01 657.06,-686.85 670.75,-693.28 3.13,-1.48 -429.55,-189.93 -429.55,-191.57"
         transform="translate(0,2.5e-5)"
         id="path113" /></clipPath><clipPath
       clipPathUnits="userSpaceOnUse"
       id="clipPath115"><path
         d="m 5518.83,1045.26 c 0,-8.71 -48.61,-15.78 -108.56,-15.78 -59.95,0 -108.55,7.07 -108.55,15.78 0,1.08 -478.14,267.69 -476.74,268.7 10,7.22 47.41,616.14 452.65,616.15 722.47,0.01 657.06,-686.85 670.75,-693.28 3.13,-1.48 -429.55,-189.93 -429.55,-191.57"
         transform="translate(0,2.5e-5)"
         id="path115" /></clipPath><clipPath
       clipPathUnits="userSpaceOnUse"
       id="clipPath117"><path
         d="m 5518.83,1045.26 c 0,-8.71 -48.61,-15.78 -108.56,-15.78 -59.95,0 -108.55,7.07 -108.55,15.78 0,1.08 -478.14,267.69 -476.74,268.7 10,7.22 47.41,616.14 452.65,616.15 722.47,0.01 657.06,-686.85 670.75,-693.28 3.13,-1.48 -429.55,-189.93 -429.55,-191.57"
         transform="translate(0,2.5e-5)"
         id="path117" /></clipPath><clipPath
       clipPathUnits="userSpaceOnUse"
       id="clipPath119"><path
         d="m 5518.83,1045.26 c 0,-8.71 -48.61,-15.78 -108.56,-15.78 -59.95,0 -108.55,7.07 -108.55,15.78 0,1.08 -478.14,267.69 -476.74,268.7 10,7.22 47.41,616.14 452.65,616.15 722.47,0.01 657.06,-686.85 670.75,-693.28 3.13,-1.48 -429.55,-189.93 -429.55,-191.57"
         transform="translate(0,2.5e-5)"
         id="path119" /></clipPath><clipPath
       clipPathUnits="userSpaceOnUse"
       id="clipPath121"><path
         d="m 5518.83,1045.26 c 0,-8.71 -48.61,-15.78 -108.56,-15.78 -59.95,0 -108.55,7.07 -108.55,15.78 0,1.08 -478.14,267.69 -476.74,268.7 10,7.22 47.41,616.14 452.65,616.15 722.47,0.01 657.06,-686.85 670.75,-693.28 3.13,-1.48 -429.55,-189.93 -429.55,-191.57"
         transform="translate(0,2.5e-5)"
         id="path121" /></clipPath><clipPath
       clipPathUnits="userSpaceOnUse"
       id="clipPath123"><path
         d="m 5518.83,1045.26 c 0,-8.71 -48.61,-15.78 -108.56,-15.78 -59.95,0 -108.55,7.07 -108.55,15.78 0,1.08 -478.14,267.69 -476.74,268.7 10,7.22 47.41,616.14 452.65,616.15 722.47,0.01 657.06,-686.85 670.75,-693.28 3.13,-1.48 -429.55,-189.93 -429.55,-191.57"
         transform="translate(0,2.5e-5)"
         id="path123" /></clipPath></defs><g
     id="g1"
     transform="matrix(0.26458333,0,0,0.26458334,-11.269179,-9.6534163)"><g
       id="group-R5"><path
         id="path3"
         d="M 2037.38,2105.45 H 1770.8 v 252.25 h 266.58 z m 0,-303.87 H 1770.8 v 252.24 h 266.58 z m 0,-303.87 H 1770.8 v 252.24 h 266.58 z m 0,-303.87 H 1770.8 v 252.23 h 266.58 z m -339.99,911.61 h -266.57 v 252.25 h 266.57 z m 0,-303.87 h -266.57 v 252.24 h 266.57 z m 0,-303.87 h -266.57 v 252.24 h 266.57 z m 0,-303.87 h -266.57 v 252.23 h 266.57 z M 2508.78,4726.36 319.441,2465.12 H 1109.45 V 978.16 h 2798.68 v 1486.96 h 790 L 2508.78,4726.36"
         style="fill:#d7e7e7;fill-opacity:1;fill-rule:nonzero;stroke:none"
         transform="matrix(0.13333333,0,0,-0.13333333,0,666.66667)" /><path
         id="path4"
         d="m 7066.28,1840.12 h 154.18 v -145.88 h -154.18 v 145.88 m 0,-175.75 h 154.18 v -145.88 h -154.18 v 145.88 m 0,-175.74 h 154.18 v -145.89 h -154.18 v 145.89 m 0,-175.75 h 154.18 v -145.89 h -154.18 v 145.89 m 196.63,527.24 h 154.18 v -145.88 h -154.18 v 145.88 m 0,-175.75 h 154.18 v -145.88 h -154.18 v 145.88 m 0,-175.74 h 154.18 v -145.89 h -154.18 v 145.89 m 0,-175.75 h 154.18 v -145.89 h -154.18 v 145.89 m -1735.5,589.38 h 456.91 v -860 h 1618.64 v 860 h 456.9 L 6793.63,3210.06 5527.41,1902.26"
         style="fill:#d7e7e7;fill-opacity:1;fill-rule:nonzero;stroke:none"
         transform="matrix(0.13333333,0,0,-0.13333333,0,666.66667)" /><path
         id="path5"
         d="M 1695.46,3169 H 1162.3 v 1121.08 h 533.16 V 3169"
         style="fill:#d7e7e7;fill-opacity:1;fill-rule:nonzero;stroke:none"
         transform="matrix(0.13333333,0,0,-0.13333333,0,666.66667)" /><path
         id="path6"
         d="M 1753.41,4236.98 H 1077.3 v 126.86 h 676.11 v -126.86"
         style="fill:#d7e7e7;fill-opacity:1;fill-rule:nonzero;stroke:none"
         transform="matrix(0.13333333,0,0,-0.13333333,0,666.66667)" /><path
         id="path7"
         d="m 645,1020 c 0,0 -120,80 -205,365 -85,285 25,375.91 75,507.96 50,132.04 45,316.7 60,421.86 15,105.18 125,182.7 250,53.94 C 950,2240 865,1856.02 900,1728.01 935,1600 995,1434.12 900,1309.56 805,1185 785,1020 785,1020 H 645"
         style="fill:#d7e7e7;fill-opacity:1;fill-rule:nonzero;stroke:none"
         transform="matrix(0.13333333,0,0,-0.13333333,0,666.66667)" /><path
         id="path8"
         d="m 4254.43,1020 c 0,0 -86.36,57.58 -147.54,262.7 -61.18,205.12 17.99,270.55 53.98,365.59 35.99,95.03 32.39,227.93 43.18,303.62 10.8,75.71 89.97,131.5 179.93,38.82 89.98,-92.66 28.79,-369.03 53.99,-461.16 25.18,-92.13 68.37,-211.51 0,-301.16 C 4369.59,1138.75 4355.2,1020 4355.2,1020 h -100.77"
         style="fill:#d7e7e7;fill-opacity:1;fill-rule:nonzero;stroke:none"
         transform="matrix(0.13333333,0,0,-0.13333333,0,666.66667)" /><path
         id="path10"
         d="m 5617.41,782.992 c 0,-24.562 -127.47,-44.461 -284.7,-44.461 -157.24,0 -284.71,19.899 -284.71,44.461 0,24.559 127.47,44.457 284.71,44.457 157.23,0 284.7,-19.898 284.7,-44.457"
         style="fill:#a9c7c6;fill-opacity:1;fill-rule:nonzero;stroke:none"
         transform="matrix(0.13333333,0,0,-0.13333333,0,666.66667)" /><path
         id="path11"
         d="m 2494.34,661.879 c 0,-42.809 -183.85,-77.508 -410.64,-77.508 -226.79,0 -410.63,34.699 -410.63,77.508 0,42.82 183.84,77.519 410.63,77.519 226.79,0 410.64,-34.699 410.64,-77.519"
         style="fill:#a9c7c6;fill-opacity:1;fill-rule:nonzero;stroke:none"
         transform="matrix(0.13333333,0,0,-0.13333333,0,666.66667)" /><path
         id="path12"
         d="m 4100.39,686.641 c 0,-42.809 -247.79,-77.52 -553.46,-77.52 -305.66,0 -553.45,34.711 -553.45,77.52 0,42.808 247.79,77.519 553.45,77.519 305.67,0 553.46,-34.711 553.46,-77.519"
         style="fill:#a9c7c6;fill-opacity:1;fill-rule:nonzero;stroke:none"
         transform="matrix(0.13333333,0,0,-0.13333333,0,666.66667)" /><path
         id="path13"
         d="m 5071.44,686.641 c 0,-42.809 -247.8,-77.52 -553.46,-77.52 -305.67,0 -553.46,34.711 -553.46,77.52 0,42.808 247.79,77.519 553.46,77.519 305.66,0 553.46,-34.711 553.46,-77.519"
         style="fill:#a9c7c6;fill-opacity:1;fill-rule:nonzero;stroke:none"
         transform="matrix(0.13333333,0,0,-0.13333333,0,666.66667)" /><path
         id="path14"
         d="m 5679.02,827.449 c 0,-42.808 -247.79,-77.519 -553.45,-77.519 -305.67,0 -553.46,34.711 -553.46,77.519 0,42.813 247.79,77.52 553.46,77.52 305.66,0 553.45,-34.707 553.45,-77.52"
         style="fill:#a9c7c6;fill-opacity:1;fill-rule:nonzero;stroke:none"
         transform="matrix(0.13333333,0,0,-0.13333333,0,666.66667)" /><path
         id="path15"
         d="m 6682.14,873.969 c 0,-42.797 -320.77,-77.508 -716.47,-77.508 -395.68,0 -716.46,34.711 -716.46,77.508 0,42.82 320.78,77.519 716.46,77.519 395.7,0 716.47,-34.699 716.47,-77.519"
         style="fill:#a9c7c6;fill-opacity:1;fill-rule:nonzero;stroke:none"
         transform="matrix(0.13333333,0,0,-0.13333333,0,666.66667)" /><path
         id="path16"
         d="M 4712.48,1291.66 H 5952.93 V 3255.21 H 4712.48 Z"
         style="fill:#77787a;fill-opacity:1;fill-rule:nonzero;stroke:none"
         transform="matrix(0.13333333,0,0,-0.13333333,0,666.66667)" /><path
         id="path17"
         d="m 4889.87,1291.66 h 889.848 V 3255.21 H 4889.87 Z"
         style="fill:#666769;fill-opacity:1;fill-rule:nonzero;stroke:none"
         transform="matrix(0.13333333,0,0,-0.13333333,0,666.66667)" /><path
         id="path18"
         d="m 4756.4,1109.13 h -87.85 v 2190 h 87.85 v -2190"
         style="fill:#c0bfbd;fill-opacity:1;fill-rule:nonzero;stroke:none"
         transform="matrix(0.13333333,0,0,-0.13333333,0,666.66667)" /><path
         id="path19"
         d="m 4668.55,3211.29 v 87.84 h 1328.31 v -87.84 H 4668.55"
         style="fill:#c0bfbd;fill-opacity:1;fill-rule:nonzero;stroke:none"
         transform="matrix(0.13333333,0,0,-0.13333333,0,666.66667)" /><path
         id="path20"
         d="m 4668.55,2562.72 v 87.84 h 1328.31 v -87.84 H 4668.55"
         style="fill:#c0bfbd;fill-opacity:1;fill-rule:nonzero;stroke:none"
         transform="matrix(0.13333333,0,0,-0.13333333,0,666.66667)" /><path
         id="path21"
         d="m 4668.55,1914.15 v 87.83 h 1328.31 v -87.83 H 4668.55"
         style="fill:#c0bfbd;fill-opacity:1;fill-rule:nonzero;stroke:none"
         transform="matrix(0.13333333,0,0,-0.13333333,0,666.66667)" /><path
         id="path22"
         d="m 4668.55,1265.58 h 1328.31 v 87.8281 H 4668.55 Z"
         style="fill:#c0bfbd;fill-opacity:1;fill-rule:nonzero;stroke:none"
         transform="matrix(0.13333333,0,0,-0.13333333,0,666.66667)" /><path
         id="path23"
         d="m 5909.01,1109.13 h 87.8477 v 2190 H 5909.01 Z"
         style="fill:#c0bfbd;fill-opacity:1;fill-rule:nonzero;stroke:none"
         transform="matrix(0.13333333,0,0,-0.13333333,0,666.66667)" /><path
         id="path24"
         d="m 5665.85,1030.91 h 26.3477 V 2295.17 H 5665.85 Z"
         style="fill:#6a472c;fill-opacity:1;fill-rule:nonzero;stroke:none"
         transform="matrix(0.13333333,0,0,-0.13333333,0,666.66667)" /><path
         id="path25"
         d="m 5912.29,2250.91 h -466.54 l 83.5,433.85 H 5811 l 101.29,-433.85"
         style="fill:#8b50ad;fill-opacity:1;fill-rule:nonzero;stroke:none"
         transform="matrix(0.13333333,0,0,-0.13333333,0,666.66667)" /><path
         id="path26"
         d="m 5811,2684.76 h -99.85 l 43.55,-433.85 h 157.59 L 5811,2684.76"
         style="fill:#a16cbd;fill-opacity:1;fill-rule:nonzero;stroke:none"
         transform="matrix(0.13333333,0,0,-0.13333333,0,666.66667)" /><path
         id="path27"
         d="M 4702.16,991.289 4650.03,841 h -34.76 l 28.62,150.289 h 58.27"
         style="fill:#6a472c;fill-opacity:1;fill-rule:nonzero;stroke:none"
         transform="matrix(0.13333333,0,0,-0.13333333,0,666.66667)" /><path
         id="path28"
         d="M 6450.3,991.289 6502.44,841 h 34.76 l -28.63,150.289 h -58.27"
         style="fill:#6a472c;fill-opacity:1;fill-rule:nonzero;stroke:none"
         transform="matrix(0.13333333,0,0,-0.13333333,0,666.66667)" /><path
         id="path29"
         d="m 4931.2,1253.25 h 1309.72 v 548.949 H 4931.2 Z"
         style="fill:#c51e25;fill-opacity:1;fill-rule:nonzero;stroke:none"
         transform="matrix(0.13333333,0,0,-0.13333333,0,666.66667)" /><path
         id="path30"
         d="m 4931.2,1802.2 v -548.95 h 636.03 v 489.13 c 0,33.04 -30.6,59.82 -68.34,59.82 H 4931.2"
         style="fill:#ee2431;fill-opacity:1;fill-rule:nonzero;stroke:none"
         transform="matrix(0.13333333,0,0,-0.13333333,0,666.66667)" /><path
         id="path31"
         d="M 6240.92,1802.2 H 5641.1 c -30.4,0 -55.05,-21.43 -55.05,-47.85 v -501.1 h 654.87 v 548.95"
         style="fill:#ee2431;fill-opacity:1;fill-rule:nonzero;stroke:none"
         transform="matrix(0.13333333,0,0,-0.13333333,0,666.66667)" /><path
         id="path32"
         d="m 4695.45,955.559 h -104.46 c -23.69,0 -42.88,19.203 -42.88,42.882 v 380.999 c 0,10.77 8.73,19.5 19.49,19.5 h 127.85 V 955.559"
         style="fill:#ee2431;fill-opacity:1;fill-rule:nonzero;stroke:none"
         transform="matrix(0.13333333,0,0,-0.13333333,0,666.66667)" /><path
         id="path33"
         d="m 4901.73,1414.42 h -137.52 l 26.95,401.26 c 0.96,14.16 14.59,25.23 31.09,25.23 h 89.3 l -9.82,-426.49"
         style="fill:#ee2431;fill-opacity:1;fill-rule:nonzero;stroke:none"
         transform="matrix(0.13333333,0,0,-0.13333333,0,666.66667)" /><path
         id="path34"
         d="m 4695.45,955.559 h -106.74 c -22.42,0 -40.6,18.179 -40.6,40.601 v 372.03 c 0,16.99 13.76,30.75 30.74,30.75 h 116.6 V 955.559"
         style="fill:#ee2431;fill-opacity:1;fill-rule:nonzero;stroke:none"
         transform="matrix(0.13333333,0,0,-0.13333333,0,666.66667)" /><path
         id="path35"
         d="m 4901.73,1414.42 h -137.52 l -198.3,-16.19 129.54,0.71 206.28,15.48"
         style="fill:#ee2431;fill-opacity:1;fill-rule:nonzero;stroke:none"
         transform="matrix(0.13333333,0,0,-0.13333333,0,666.66667)" /><path
         id="path36"
         d="m 4695.45,955.559 238.2,27.453 17.19,819.188 -39.29,38.71 -9.82,-426.49 -206.28,-15.48 V 955.559"
         style="fill:#c51e25;fill-opacity:1;fill-rule:nonzero;stroke:none"
         transform="matrix(0.13333333,0,0,-0.13333333,0,666.66667)" /><path
         id="path37"
         d="m 6457.02,955.559 h 108.83 c 21.27,0 38.52,17.242 38.52,38.511 v 379.06 c 0,14.25 -11.56,25.81 -25.82,25.81 H 6457.02 V 955.559"
         style="fill:#ee2431;fill-opacity:1;fill-rule:nonzero;stroke:none"
         transform="matrix(0.13333333,0,0,-0.13333333,0,666.66667)" /><path
         id="path38"
         d="m 6250.74,1414.42 h 137.52 l -26.95,401.26 c -0.96,14.16 -14.59,25.23 -31.09,25.23 h -89.3 l 9.82,-426.49"
         style="fill:#ee2431;fill-opacity:1;fill-rule:nonzero;stroke:none"
         transform="matrix(0.13333333,0,0,-0.13333333,0,666.66667)" /><path
         id="path39"
         d="m 6457.02,955.559 h 64.23 c 45.91,0 83.12,37.203 83.12,83.111 v 342.24 c 0,9.96 -8.07,18.03 -18.03,18.03 H 6457.02 V 955.559"
         style="fill:#ee2431;fill-opacity:1;fill-rule:nonzero;stroke:none"
         transform="matrix(0.13333333,0,0,-0.13333333,0,666.66667)" /><path
         id="path40"
         d="m 6250.74,1414.42 h 137.52 l 200.55,-15.48 h -131.79 l -206.28,15.48"
         style="fill:#ee2431;fill-opacity:1;fill-rule:nonzero;stroke:none"
         transform="matrix(0.13333333,0,0,-0.13333333,0,666.66667)" /><path
         id="path41"
         d="m 6457.02,955.559 -238.2,27.453 -17.2,819.188 39.3,38.71 9.82,-426.49 206.28,-15.48 V 955.559"
         style="fill:#c51e25;fill-opacity:1;fill-rule:nonzero;stroke:none"
         transform="matrix(0.13333333,0,0,-0.13333333,0,666.66667)" /><path
         id="path42"
         d="M 6457.02,955.559 H 4695.45 V 1100.54 H 6457.02 V 955.559"
         style="fill:#ee2431;fill-opacity:1;fill-rule:nonzero;stroke:none"
         transform="matrix(0.13333333,0,0,-0.13333333,0,666.66667)" /><path
         id="path43"
         d="M 6457.02,1100.54 H 4695.45 v 144.98 h 1761.57 v -144.98"
         style="fill:#c51e25;fill-opacity:1;fill-rule:nonzero;stroke:none"
         transform="matrix(0.13333333,0,0,-0.13333333,0,666.66667)" /><path
         id="path44"
         d="M 6448.84,1245.52 H 4703.63 l 236.48,38 h 1272.98 l 235.75,-38"
         style="fill:#e01d25;fill-opacity:1;fill-rule:nonzero;stroke:none"
         transform="matrix(0.13333333,0,0,-0.13333333,0,666.66667)" /><path
         id="path45"
         d="m 5568.87,1108.63 h -865.24 v 136.89 h 865.24 v -136.89"
         style="fill:#ee2431;fill-opacity:1;fill-rule:nonzero;stroke:none"
         transform="matrix(0.13333333,0,0,-0.13333333,0,666.66667)" /><path
         id="path46"
         d="m 6448.84,1108.63 h -862.79 v 136.89 h 862.79 v -136.89"
         style="fill:#ee2431;fill-opacity:1;fill-rule:nonzero;stroke:none"
         transform="matrix(0.13333333,0,0,-0.13333333,0,666.66667)" /><path
         id="path47"
         d="m 5921.19,1292.49 h 145.777 v 132.711 H 5921.19 Z"
         style="fill:#4c4c4e;fill-opacity:1;fill-rule:nonzero;stroke:none"
         transform="matrix(0.13333333,0,0,-0.13333333,0,666.66667)" /><path
         id="path48"
         d="m 5921.19,1319.51 v 10.45 l 109.9,8.1 -109.9,-18.55"
         style="fill:#343334;fill-opacity:1;fill-rule:nonzero;stroke:none"
         transform="matrix(0.13333333,0,0,-0.13333333,0,666.66667)" /><path
         id="path49"
         d="m 5586.05,1311.9 c -6.98,0.42 -13.43,0.98 -18.82,1.73 v 84.06 l 18.82,93.85 V 1311.9"
         style="fill:#ae1c22;fill-opacity:1;fill-rule:nonzero;stroke:none"
         transform="matrix(0.13333333,0,0,-0.13333333,0,666.66667)" /><path
         id="path50"
         d="m 5567.23,1313.63 c -9.49,1.31 -15.69,3.2 -15.69,5.88 l 15.69,78.18 v -84.06"
         style="fill:#ed1d24;fill-opacity:1;fill-rule:nonzero;stroke:none"
         transform="matrix(0.13333333,0,0,-0.13333333,0,666.66667)" /><path
         id="path51"
         d="m 5635.83,1310.7 c -15.04,0 -33.79,0.23 -49.78,1.2 v 179.64 l 56.87,283.46 c 0,10.8 8.75,19.55 19.54,19.55 h 539.32 -539.32 c -10.79,0 -19.54,-8.75 -19.54,-19.55 v -395.66 c 0,-10.79 8.75,-19.55 19.54,-19.55 h 258.73 v -29.83 l -258.61,-19.08 c -3.09,0 -13.48,-0.18 -26.75,-0.18 m 431.14,30.01 v 3.41 15.67 h 143.94 l 0.18,-8.45 -144.12,-10.63"
         style="fill:#ed1d24;fill-opacity:1;fill-rule:nonzero;stroke:none"
         transform="matrix(0.13333333,0,0,-0.13333333,0,666.66667)" /><path
         id="path52"
         d="m 6211.09,1351.34 -0.18,8.45 h 114.78 l -114.6,-8.45"
         style="fill:#ae1c22;fill-opacity:1;fill-rule:nonzero;stroke:none"
         transform="matrix(0.13333333,0,0,-0.13333333,0,666.66667)" /><path
         id="path53"
         d="m 6031.09,1338.06 35.88,6.06 v -3.41 l -35.88,-2.65"
         style="fill:#443b36;fill-opacity:1;fill-rule:nonzero;stroke:none"
         transform="matrix(0.13333333,0,0,-0.13333333,0,666.66667)" /><path
         id="path54"
         d="m 5921.19,1329.96 v 29.83 h 145.78 v -15.67 l -35.88,-6.06 -109.9,-8.1"
         style="fill:#2e2724;fill-opacity:1;fill-rule:nonzero;stroke:none"
         transform="matrix(0.13333333,0,0,-0.13333333,0,666.66667)" /><path
         id="path55"
         d="m 6325.69,1359.79 h -663.23 c -10.79,0 -19.54,8.76 -19.54,19.55 V 1775 c 0,10.8 8.75,19.55 19.54,19.55 h 663.23 c 10.8,0 19.55,-8.75 19.55,-19.55 v -395.66 c 0,-10.79 -8.75,-19.55 -19.55,-19.55"
         style="fill:#77787a;fill-opacity:1;fill-rule:nonzero;stroke:none"
         transform="matrix(0.13333333,0,0,-0.13333333,0,666.66667)" /><path
         id="path56"
         d="m 5664.4,1397.9 h 662.941 v 364.832 H 5664.4 Z"
         style="fill:#4c4c4e;fill-opacity:1;fill-rule:nonzero;stroke:none"
         transform="matrix(0.13333333,0,0,-0.13333333,0,666.66667)" /><path
         id="path57"
         d="m 6163.03,1397.9 -308.88,364.83 h -26.98 l 310.88,-364.83 h 24.98"
         style="fill:#666769;fill-opacity:1;fill-rule:nonzero;stroke:none"
         transform="matrix(0.13333333,0,0,-0.13333333,0,666.66667)" /><path
         id="path58"
         d="m 6124.06,1762.73 h -38.69 l 241.97,-286.74 v 45.63 l -203.28,241.11"
         style="fill:#666769;fill-opacity:1;fill-rule:nonzero;stroke:none"
         transform="matrix(0.13333333,0,0,-0.13333333,0,666.66667)" /><path
         id="path59"
         d="m 6012.84,1762.73 h -110.21 l 306.78,-364.83 h 111.01 l -307.58,364.83"
         style="fill:#666769;fill-opacity:1;fill-rule:nonzero;stroke:none"
         transform="matrix(0.13333333,0,0,-0.13333333,0,666.66667)" /><path
         id="path60"
         d="m 5671.05,1397.9 h -6.65 v 364.83 h 162.77 l 7.4,-8.7 H 5671.05 V 1397.9 m 238.89,356.13 h -48.43 l -7.36,8.7 h 48.48 l 7.31,-8.7"
         style="fill:#343334;fill-opacity:1;fill-rule:nonzero;stroke:none"
         transform="matrix(0.13333333,0,0,-0.13333333,0,666.66667)" /><path
         id="path61"
         d="m 5861.51,1754.03 h -26.94 l -7.4,8.7 h 26.98 l 7.36,-8.7"
         style="fill:#464648;fill-opacity:1;fill-rule:nonzero;stroke:none"
         transform="matrix(0.13333333,0,0,-0.13333333,0,666.66667)" /><path
         id="path62"
         d="m 6327.34,1754.03 h -195.95 l -7.33,8.7 h 203.28 v -8.7 m -234.63,0 h -72.54 l -7.33,8.7 h 72.53 l 7.34,-8.7"
         style="fill:#343334;fill-opacity:1;fill-rule:nonzero;stroke:none"
         transform="matrix(0.13333333,0,0,-0.13333333,0,666.66667)" /><path
         id="path63"
         d="m 6131.39,1754.03 h -38.68 l -7.34,8.7 h 38.69 l 7.33,-8.7"
         style="fill:#464648;fill-opacity:1;fill-rule:nonzero;stroke:none"
         transform="matrix(0.13333333,0,0,-0.13333333,0,666.66667)" /><path
         id="path64"
         d="m 6020.17,1754.03 h -110.23 l -7.31,8.7 h 110.21 l 7.33,-8.7"
         style="fill:#464648;fill-opacity:1;fill-rule:nonzero;stroke:none"
         transform="matrix(0.13333333,0,0,-0.13333333,0,666.66667)" /><path
         id="path65"
         d="M 6172.86,1265.74 H 5815.3 c 0,21.48 17.41,38.89 38.89,38.89 h 279.78 c 21.48,0 38.89,-17.41 38.89,-38.89"
         style="fill:#77787a;fill-opacity:1;fill-rule:nonzero;stroke:none"
         transform="matrix(0.13333333,0,0,-0.13333333,0,666.66667)" /><path
         id="path66"
         d="m 4848.14,2131.89 221.58,-12.1 v 250.39 l -221.58,-16.46 v -221.83"
         style="fill:#f68642;fill-opacity:1;fill-rule:nonzero;stroke:none"
         transform="matrix(0.13333333,0,0,-0.13333333,0,666.66667)" /><path
         id="path67"
         d="m 5069.4,2119.79 221.58,12.1 v 221.83 l -221.58,16.46 v -250.39"
         style="fill:#f89a55;fill-opacity:1;fill-rule:nonzero;stroke:none"
         transform="matrix(0.13333333,0,0,-0.13333333,0,666.66667)" /><path
         id="path68"
         d="m 5197.72,2126.8 -30.94,-1.69 v 237.83 l 30.94,-2.3 V 2126.8"
         style="fill:#fbc873;fill-opacity:1;fill-rule:nonzero;stroke:none"
         transform="matrix(0.13333333,0,0,-0.13333333,0,666.66667)" /><path
         id="path69"
         d="m 4953.05,2126.16 -30.95,1.69 v 231.36 l 30.95,2.29 v -235.34"
         style="fill:#fab85c;fill-opacity:1;fill-rule:nonzero;stroke:none"
         transform="matrix(0.13333333,0,0,-0.13333333,0,666.66667)" /><path
         id="path70"
         d="m 5069.4,2223.73 h 222.39 v 43.23 l -222.39,5.17 v -48.4"
         style="fill:#fbc873;fill-opacity:1;fill-rule:nonzero;stroke:none"
         transform="matrix(0.13333333,0,0,-0.13333333,0,666.66667)" /><path
         id="path71"
         d="m 5069.4,2223.73 h -222.07 v 43.23 l 222.07,5.17 v -48.4"
         style="fill:#fab85c;fill-opacity:1;fill-rule:nonzero;stroke:none"
         transform="matrix(0.13333333,0,0,-0.13333333,0,666.66667)" /><path
         id="path72"
         d="m 4822.79,1908.04 317.67,-12.1 v 250.38 l -317.67,-16.46 v -221.82"
         style="fill:#f68642;fill-opacity:1;fill-rule:nonzero;stroke:none"
         transform="matrix(0.13333333,0,0,-0.13333333,0,666.66667)" /><path
         id="path73"
         d="m 5140,1895.94 317.67,12.1 v 221.82 L 5140,2146.32 v -250.38"
         style="fill:#f89a55;fill-opacity:1;fill-rule:nonzero;stroke:none"
         transform="matrix(0.13333333,0,0,-0.13333333,0,666.66667)" /><path
         id="path74"
         d="m 5323.96,1902.94 -44.36,-1.69 v 237.83 l 44.36,-2.29 v -233.85"
         style="fill:#fbc873;fill-opacity:1;fill-rule:nonzero;stroke:none"
         transform="matrix(0.13333333,0,0,-0.13333333,0,666.66667)" /><path
         id="path75"
         d="m 4973.19,1902.3 -44.37,1.69 v 231.36 l 44.37,2.31 V 1902.3"
         style="fill:#fab85c;fill-opacity:1;fill-rule:nonzero;stroke:none"
         transform="matrix(0.13333333,0,0,-0.13333333,0,666.66667)" /><path
         id="path76"
         d="m 5140,1999.87 h 318.83 v 43.24 l -318.83,5.16 v -48.4"
         style="fill:#fbc873;fill-opacity:1;fill-rule:nonzero;stroke:none"
         transform="matrix(0.13333333,0,0,-0.13333333,0,666.66667)" /><path
         id="path77"
         d="m 5140,1999.87 h -318.38 v 43.24 l 318.38,5.16 v -48.4"
         style="fill:#fab85c;fill-opacity:1;fill-rule:nonzero;stroke:none"
         transform="matrix(0.13333333,0,0,-0.13333333,0,666.66667)" /><path
         id="path78"
         d="m 4943.73,812.34 510.04,35.41 v 721.34 l -510.04,28.8 V 812.34"
         style="fill:#f89a55;fill-opacity:1;fill-rule:nonzero;stroke:none"
         transform="matrix(0.13333333,0,0,-0.13333333,0,666.66667)" /><path
         id="path79"
         d="m 5453.77,1340.95 -510.04,192.8 v 64.14 l 510.04,-28.8 v -228.14"
         style="fill:#f68745;fill-opacity:1;fill-rule:nonzero;stroke:none"
         transform="matrix(0.13333333,0,0,-0.13333333,0,666.66667)" /><path
         id="path80"
         d="m 5189.19,1584.02 66.77,-3.77 V 834.012 l -66.77,-4.641 v 754.649"
         style="fill:#fbc873;fill-opacity:1;fill-rule:nonzero;stroke:none"
         transform="matrix(0.13333333,0,0,-0.13333333,0,666.66667)" /><path
         id="path81"
         d="m 4943.73,812.332 -302.41,35.418 v 727.88 l 302.41,22.26 V 812.332"
         style="fill:#f68642;fill-opacity:1;fill-rule:nonzero;stroke:none"
         transform="matrix(0.13333333,0,0,-0.13333333,0,666.66667)" /><path
         id="path82"
         d="M 4796.46,1587.05 V 829.582 l -64.81,7.59 v 745.118 l 64.81,4.76"
         style="fill:#fab85c;fill-opacity:1;fill-rule:nonzero;stroke:none"
         transform="matrix(0.13333333,0,0,-0.13333333,0,666.66667)" /><path
         id="path83"
         d="M 4443.54,1568.94 4931,1550.37 v 384.2 l -487.46,-25.24 v -340.39"
         style="fill:#f68642;fill-opacity:1;fill-rule:nonzero;stroke:none"
         transform="matrix(0.13333333,0,0,-0.13333333,0,666.66667)" /><path
         id="path84"
         d="m 4930.29,1550.37 487.45,18.57 v 340.39 l -487.45,25.24 v -384.2"
         style="fill:#f89a55;fill-opacity:1;fill-rule:nonzero;stroke:none"
         transform="matrix(0.13333333,0,0,-0.13333333,0,666.66667)" /><path
         id="path85"
         d="m 5212.59,1561.12 -68.08,-2.59 v 364.95 l 68.08,-3.53 v -358.83"
         style="fill:#fbc873;fill-opacity:1;fill-rule:nonzero;stroke:none"
         transform="matrix(0.13333333,0,0,-0.13333333,0,666.66667)" /><path
         id="path86"
         d="m 4674.33,1560.15 -68.08,2.59 v 355.01 l 68.08,3.53 v -361.13"
         style="fill:#f2cdba;fill-opacity:1;fill-rule:nonzero;stroke:none"
         transform="matrix(0.13333333,0,0,-0.13333333,0,666.66667)" /><path
         id="path87"
         d="m 4930.29,1709.86 h 489.24 v 66.34 l -489.24,7.93 v -74.27"
         style="fill:#fbc873;fill-opacity:1;fill-rule:nonzero;stroke:none"
         transform="matrix(0.13333333,0,0,-0.13333333,0,666.66667)" /><path
         id="path88"
         d="m 4930.29,1709.86 h -488.53 v 66.34 l 488.53,7.93 v -74.27"
         style="fill:#fab85c;fill-opacity:1;fill-rule:nonzero;stroke:none"
         transform="matrix(0.13333333,0,0,-0.13333333,0,666.66667)" /><path
         id="path89"
         d="m 5538.46,1042.19 -128.07,-5.17 -128.07,5.17 c 0,0 -25.17,-88.018 28.59,-251.819 0,-9.531 44.49,-17.262 99.36,-17.262 54.88,0 99.37,7.731 99.37,17.262 h 0.23 c 53.76,163.801 28.59,251.819 28.59,251.819"
         style="fill:#f35b48;fill-opacity:1;fill-rule:nonzero;stroke:none"
         transform="matrix(0.13333333,0,0,-0.13333333,0,666.66667)" /><path
         id="path90"
         d="m 5538.22,1042.19 c 0,-12.28 -57.28,-22.24 -127.95,-22.24 -70.66,0 -127.95,9.96 -127.95,22.24 0,12.27 57.29,22.22 127.95,22.22 70.67,0 127.95,-9.95 127.95,-22.22"
         style="fill:#f46c64;fill-opacity:1;fill-rule:nonzero;stroke:none"
         transform="matrix(0.13333333,0,0,-0.13333333,0,666.66667)" /><path
         id="path91"
         d="m 5518.83,1045.26 c 0,-8.71 -48.61,-15.78 -108.56,-15.78 -59.95,0 -108.55,7.07 -108.55,15.78 0,8.72 48.6,15.78 108.55,15.78 59.95,0 108.56,-7.06 108.56,-15.78"
         style="fill:#5a4132;fill-opacity:1;fill-rule:nonzero;stroke:none"
         transform="matrix(0.13333333,0,0,-0.13333333,0,666.66667)" /><path
         id="path92"
         d="m 5405.8,1027.57 c 125.54,222.75 171.32,335.39 226.19,644.05 -226.01,-113.79 -247.35,-528.7 -248.86,-643.55 7.54,-0.23 15.11,-0.37 22.67,-0.5"
         style="fill:#385e27;fill-opacity:1;fill-rule:nonzero;stroke:none"
         transform="matrix(0.13333333,0,0,-0.13333333,0,666.66667)"
         clip-path="url(#clipPath93)" /><path
         id="path94"
         d="m 5393.96,1027.82 c 53.89,202.01 79.59,340.54 238.03,643.8 -226.01,-113.79 -247.35,-528.7 -248.86,-643.55 3.6,-0.11 7.22,-0.17 10.83,-0.25"
         style="fill:#45712b;fill-opacity:1;fill-rule:nonzero;stroke:none"
         transform="matrix(0.13333333,0,0,-0.13333333,0,666.66667)"
         clip-path="url(#clipPath95)" /><path
         id="path96"
         d="m 5406.32,1027.57 c -41.37,114.1 -176.61,436.45 -393.89,468.03 129.2,-237.6 200.45,-325.04 355.03,-466.88 12.94,-0.61 25.89,-0.96 38.86,-1.15"
         style="fill:#385e27;fill-opacity:1;fill-rule:nonzero;stroke:none"
         transform="matrix(0.13333333,0,0,-0.13333333,0,666.66667)"
         clip-path="url(#clipPath97)" /><path
         id="path98"
         d="m 5406.32,1027.57 c -41.37,114.1 -176.61,436.45 -393.89,468.03 214.88,-207.22 280.37,-318.61 377.92,-467.7 5.32,-0.13 10.65,-0.25 15.97,-0.33"
         style="fill:#45712b;fill-opacity:1;fill-rule:nonzero;stroke:none"
         transform="matrix(0.13333333,0,0,-0.13333333,0,666.66667)"
         clip-path="url(#clipPath99)" /><path
         id="path100"
         d="m 5426.06,1027.28 0.66,0.01 c 49.29,310.02 -33.2,757.83 -139.08,871.19 -44.95,-486.02 73.46,-780.27 117.82,-870.9 6.86,-0.11 13.73,-0.21 20.6,-0.3"
         style="fill:#385e27;fill-opacity:1;fill-rule:nonzero;stroke:none"
         transform="matrix(0.13333333,0,0,-0.13333333,0,666.66667)"
         clip-path="url(#clipPath101)" /><path
         id="path102"
         d="m 5419.47,1027.37 c -20.59,280.16 -105.14,737.16 -131.83,871.11 -44.95,-486.02 73.46,-780.27 117.82,-870.9 4.67,-0.08 9.33,-0.15 14.01,-0.21"
         style="fill:#45712b;fill-opacity:1;fill-rule:nonzero;stroke:none"
         transform="matrix(0.13333333,0,0,-0.13333333,0,666.66667)"
         clip-path="url(#clipPath103)" /><path
         id="path104"
         d="m 5372.08,1028.52 c -8.03,23.57 -140.86,395.01 -507.31,272.42 170.14,-23.15 247.72,-68.06 306.26,-132.03 50.08,-54.75 116.12,-123.41 173.36,-138.68 9.23,-0.78 18.46,-1.33 27.69,-1.71"
         style="fill:#45712b;fill-opacity:1;fill-rule:nonzero;stroke:none"
         transform="matrix(0.13333333,0,0,-0.13333333,0,666.66667)"
         clip-path="url(#clipPath105)" /><path
         id="path106"
         d="m 5371.84,1028.53 c -11.23,20.63 -176.58,313.12 -507.07,272.41 170.14,-23.15 247.72,-68.06 306.26,-132.03 50.08,-54.75 116.12,-123.41 173.36,-138.68 9.15,-0.77 18.3,-1.32 27.45,-1.7"
         style="fill:#385e27;fill-opacity:1;fill-rule:nonzero;stroke:none"
         transform="matrix(0.13333333,0,0,-0.13333333,0,666.66667)"
         clip-path="url(#clipPath107)" /><path
         id="path108"
         d="m 5360.6,1029.01 c 3.25,47.67 4.79,232.18 -138.76,441.91 -130.89,191.22 -150.25,290.71 -152.5,324.79 0.34,-232.6 153.33,-318.84 218.3,-508.39 59.09,-172.4 70.79,-235.67 72.4,-258.28 l 0.56,-0.03"
         style="fill:#45712b;fill-opacity:1;fill-rule:nonzero;stroke:none"
         transform="matrix(0.13333333,0,0,-0.13333333,0,666.66667)"
         clip-path="url(#clipPath109)" /><path
         id="path110"
         d="m 5360.6,1029.01 c 2.53,-0.14 5.06,-0.2 7.6,-0.32 18.45,29.75 54.82,120.35 -8.71,317.16 -80.79,250.3 -230.21,273.14 -290.1,463.7 0,0 -14.52,-94.71 152.45,-338.63 143.55,-209.73 142.01,-394.24 138.76,-441.91"
         style="fill:#385e27;fill-opacity:1;fill-rule:nonzero;stroke:none"
         transform="matrix(0.13333333,0,0,-0.13333333,0,666.66667)"
         clip-path="url(#clipPath111)" /><path
         id="path112"
         d="m 5451.01,1028.84 c 8.95,1.02 17.89,2.26 26.81,3.04 70.93,107.82 244.4,359.87 370.7,447.37 -68.21,8.74 -341.94,-49.97 -397.51,-450.41"
         style="fill:#385e27;fill-opacity:1;fill-rule:nonzero;stroke:none"
         transform="matrix(0.13333333,0,0,-0.13333333,0,666.66667)"
         clip-path="url(#clipPath113)" /><path
         id="path114"
         d="m 5451.01,1028.84 c 3.95,0.45 7.91,0.93 11.86,1.42 43.7,113.23 170.89,390.8 385.65,448.99 -68.21,8.74 -341.94,-49.97 -397.51,-450.41"
         style="fill:#45712b;fill-opacity:1;fill-rule:nonzero;stroke:none"
         transform="matrix(0.13333333,0,0,-0.13333333,0,666.66667)"
         clip-path="url(#clipPath115)" /><path
         id="path116"
         d="m 5480.56,1032.11 c 83.87,49.93 299.21,172.28 426.77,192.06 -52.36,28.8 -292.62,78.65 -451.32,-194.76 8.2,1.01 16.37,2.09 24.55,2.7"
         style="fill:#385e27;fill-opacity:1;fill-rule:nonzero;stroke:none"
         transform="matrix(0.13333333,0,0,-0.13333333,0,666.66667)"
         clip-path="url(#clipPath117)" /><path
         id="path118"
         d="m 5456.01,1029.41 c 2.85,0.36 5.7,0.71 8.55,1.05 59,58.28 247.28,224.94 442.77,193.71 -52.36,28.8 -292.62,78.65 -451.32,-194.76"
         style="fill:#45712b;fill-opacity:1;fill-rule:nonzero;stroke:none"
         transform="matrix(0.13333333,0,0,-0.13333333,0,666.66667)"
         clip-path="url(#clipPath119)" /><path
         id="path120"
         d="m 5420.08,1027.36 c 1.99,-0.03 3.98,-0.06 5.98,-0.08 13.15,-0.21 26.18,1.68 39.16,3.26 30.5,47.61 47.85,124.49 60.43,186.66 17.21,84.98 60.56,163.44 194.47,270.93 -319.75,-70.96 -312.8,-359.6 -300.04,-460.77"
         style="fill:#45712b;fill-opacity:1;fill-rule:nonzero;stroke:none"
         transform="matrix(0.13333333,0,0,-0.13333333,0,666.66667)"
         clip-path="url(#clipPath121)" /><path
         id="path122"
         d="m 5426.11,1027.28 c 13.14,-0.2 26.15,1.68 39.11,3.26 30.5,47.61 47.85,124.49 60.43,186.66 17.21,84.98 60.56,163.44 194.47,270.93 -254.92,-113.42 -289.94,-367.61 -294.01,-460.85"
         style="fill:#385e27;fill-opacity:1;fill-rule:nonzero;stroke:none"
         transform="matrix(0.13333333,0,0,-0.13333333,0,666.66667)"
         clip-path="url(#clipPath123)" /><path
         id="path124"
         d="m 3380.84,2739.48 c 0,0 -99.05,-251.67 -104.17,-307.9 -1.95,-21.32 -301.7,-150.5 -301.7,-150.5 0,0 28.2,-42.89 32.53,-86.63 133.67,44.51 276.49,85.7 331.87,109.73 55.36,24.04 67.8,55.17 78.86,104.13 11.99,53.11 48.58,161.17 70.68,250.43 9.07,36.67 -108.07,80.74 -108.07,80.74"
         style="fill:#8b50ad;fill-opacity:1;fill-rule:nonzero;stroke:none"
         transform="matrix(0.13333333,0,0,-0.13333333,0,666.66667)" /><path
         id="path125"
         d="m 3330.3,841.629 c 0,0 3.77,-63.688 4.08,-74.668 0.31,-10.969 -72.35,-45.422 -78.56,-47.68 -6.22,-2.269 61.23,-20.269 103.45,-14.91 42.21,5.359 39.66,3.199 43.62,11.149 3.96,7.96 -2.48,32.878 -8.22,51.031 -5.73,18.148 1.99,74.328 1.99,74.328 l -66.36,0.75"
         style="fill:#f89e96;fill-opacity:1;fill-rule:nonzero;stroke:none"
         transform="matrix(0.13333333,0,0,-0.13333333,0,666.66667)" /><path
         id="path126"
         d="m 3397.51,757.148 c 0,0 11.18,-12.168 13.29,-52.058 0.51,-9.559 -6.56,-17.801 -16.04,-19.098 -62.51,-8.57 -142.03,-25 -175.25,-24.07 -29.4,0.816 -63.91,14.566 -62.79,24.976 3.28,30.364 151.8,56.364 160.35,65.063 13.56,-3.981 9.81,-24.039 9.81,-24.039 0,0 57.22,-1.172 70.63,29.226"
         style="fill:#232b4d;fill-opacity:1;fill-rule:nonzero;stroke:none"
         transform="matrix(0.13333333,0,0,-0.13333333,0,666.66667)" /><path
         id="path127"
         d="m 3317.65,2002.1 c 0,0 -42.08,-379.13 -46.49,-454.55 -4.41,-75.42 51.55,-750.128 51.55,-750.128 l 81.01,2.008 c 0,0 85.09,434.73 18.16,659.81 -4.28,172.48 177.26,368.88 166.09,566.29 -110.3,19.24 -270.32,-23.43 -270.32,-23.43"
         style="fill:#222e59;fill-opacity:1;fill-rule:nonzero;stroke:none"
         transform="matrix(0.13333333,0,0,-0.13333333,0,666.66667)" /><path
         id="path128"
         d="m 3862.04,852.391 c 0,0 26.19,-56.082 30.39,-65.871 4.19,-9.79 -51.07,-67.661 -56.04,-72 -4.97,-4.329 64.14,4.3 101.47,24.699 37.33,20.402 35.72,17.511 36.57,26.152 0.85,8.629 -14.02,28.75 -25.82,43.008 -11.78,14.262 -24.63,67.801 -24.63,67.801 l -61.94,-23.789"
         style="fill:#f89e96;fill-opacity:1;fill-rule:nonzero;stroke:none"
         transform="matrix(0.13333333,0,0,-0.13333333,0,666.66667)" /><path
         id="path129"
         d="m 3411.12,1975.79 c 0,0 103.56,-386.64 126.54,-456.24 22.99,-69.61 331.06,-701.249 331.06,-701.249 l 74.49,31.91 c 0,0 -83.59,442.189 -233.91,645.749 -65.9,153.84 46.73,360.98 -34.51,534.73 -109.32,-23.64 -263.67,-54.9 -263.67,-54.9"
         style="fill:#2e4281;fill-opacity:1;fill-rule:nonzero;stroke:none"
         transform="matrix(0.13333333,0,0,-0.13333333,0,666.66667)" /><path
         id="path130"
         d="m 3786.51,2703.83 c 0,0 -80.03,110.25 -158.58,129.52 -78.55,19.27 -109.68,-17.78 -131.91,-20.75 -22.23,-2.96 -66.77,-27.75 -108.71,-64.15 -15.54,-13.49 -50.43,-118.06 -68.2,-300.02 -15.95,-163.21 -62.74,-444.98 -62.74,-444.98 0,0 376.13,-71.85 469.26,-45.17 35.33,346.82 69.53,665.51 60.88,745.55"
         style="fill:#7a3ea2;fill-opacity:1;fill-rule:nonzero;stroke:none"
         transform="matrix(0.13333333,0,0,-0.13333333,0,666.66667)" /><path
         id="path131"
         d="m 3344.86,2242.54 c 0,0 109.92,-33.31 196.18,-25.47 -8.62,-106.7 62.13,-105.01 80.25,-111.28 2.44,-64.31 -0.33,-126.35 -0.33,-126.35 0,0 -204.61,5.76 -349.23,45.08 13.69,97.25 20.83,132.11 20.83,132.11 0,0 54.66,1.99 52.3,85.91"
         style="fill:#8b50ad;fill-opacity:1;fill-rule:nonzero;stroke:none"
         transform="matrix(0.13333333,0,0,-0.13333333,0,666.66667)" /><path
         id="path132"
         d="m 3670.99,2889.17 c 0,0 -96.8,17.22 -148.56,9.67 -51.76,-7.56 -59.03,-122.6 -59.03,-122.6 l 207.59,112.93"
         style="fill:#8b50ad;fill-opacity:1;fill-rule:nonzero;stroke:none"
         transform="matrix(0.13333333,0,0,-0.13333333,0,666.66667)" /><path
         id="path133"
         d="m 3590.95,2963.32 c 0,0 -9.04,-57.95 13.9,-107.48 -40.35,-14 -74.62,-52.6 -93.64,-49.59 -13.08,2.07 -20.62,55.47 -20.62,55.47 l 100.36,101.6"
         style="fill:#f68883;fill-opacity:1;fill-rule:nonzero;stroke:none"
         transform="matrix(0.13333333,0,0,-0.13333333,0,666.66667)" /><path
         id="path134"
         d="m 3445.37,3033.04 c 0,0 -47.2,6.44 -41.71,41.21 3.44,21.79 25.59,22.48 25.59,22.48 0,0 -26.49,11.5 -20.22,34.51 6.27,23 26.14,15.16 26.14,15.16 l 44.44,25.62 c 0,0 16.12,25.62 36.82,18.56 20.69,-7.06 23.05,-18.56 23.05,-18.56 12.28,21.95 49.41,14.64 48.62,-12.29 30.59,27.71 76.59,1.31 76.07,-31.11 33.46,21.44 31.89,-14.64 21.44,-21.95 32.93,-6.28 25.62,-48.11 11.5,-56.99 35.03,-19.87 -7.32,-52.29 -16.73,-52.81 20.39,-31.89 -20.39,-44.44 -20.39,-44.44 3.66,-26.66 -23.69,-39.73 -39.03,-30.85 -15.34,8.89 4.52,61.7 7.66,83.13 3.14,21.44 -16.73,62.22 -63.79,76.33 -47.05,14.12 -119.46,-48 -119.46,-48"
         style="fill:#1b203a;fill-opacity:1;fill-rule:nonzero;stroke:none"
         transform="matrix(0.13333333,0,0,-0.13333333,0,666.66667)" /><path
         id="path135"
         d="m 3454.14,3076.52 c 0,0 -24.89,-38.47 -27.22,-55.08 -2.33,-16.61 6.05,-32.26 -3.36,-42.22 -9.41,-9.96 -17.04,-16.66 -19.56,-22.61 -2.53,-5.94 9.62,-23.62 14.68,-26.03 -0.57,-16.2 6.35,-58.35 12.63,-72.54 6.29,-14.19 55.03,-10.21 96.4,4.86 41.38,15.06 42.83,61.25 51.25,81.47 8.4,20.23 65.58,32.9 31.73,92.88 -33.85,59.97 -145.62,57.4 -156.55,39.27"
         style="fill:#f89e96;fill-opacity:1;fill-rule:nonzero;stroke:none"
         transform="matrix(0.13333333,0,0,-0.13333333,0,666.66667)" /><path
         id="path136"
         d="m 3422.3,2918.81 c 0,0 7.33,-9.36 47.4,0 -19.75,-34.09 -44.87,-56.46 -47.4,0"
         style="fill:#ffffff;fill-opacity:1;fill-rule:nonzero;stroke:none"
         transform="matrix(0.13333333,0,0,-0.13333333,0,666.66667)" /><path
         id="path137"
         d="m 3479.32,2996.76 c 0,0 -26.67,12.69 -37.67,11.85 -11,-0.85 -4.23,13.96 5.5,10.58 9.73,-3.39 27.93,-15.24 32.17,-22.43"
         style="fill:#1b203a;fill-opacity:1;fill-rule:nonzero;stroke:none"
         transform="matrix(0.13333333,0,0,-0.13333333,0,666.66667)" /><path
         id="path138"
         d="m 3610.69,3037.25 c -18.18,32.21 -58.83,46.36 -94.26,49.77 l 1.06,-37.31 c 0,0 6.34,-31 18.72,-42.19 -1.38,-16.49 -3.96,-31.61 -6.55,-43.96 l 20.64,-1.23 c -0.09,15.74 9.1,11.9 18.66,20.56 11.53,10.42 32.97,16.53 45.22,-7.08 8.77,14.83 11.93,34.12 -3.49,61.44"
         style="fill:#1b203a;fill-opacity:1;fill-rule:nonzero;stroke:none"
         transform="matrix(0.13333333,0,0,-0.13333333,0,666.66667)" /><path
         id="path139"
         d="m 3528.5,3051.66 c 0,0 -72.85,-3.23 -92.2,43.47 -19.35,46.71 4.72,86.23 28.67,86.25 23.95,0.02 36.06,-30.22 36.06,-30.22 27.76,21.1 80.22,-5.43 91.99,-30.86 54.82,10.24 48.34,-37.15 48.34,-37.15 56.71,1.04 32.11,-139.66 -46.44,-198.45 -7.86,27.47 -19.36,111.62 -19.36,111.62 l -47.06,55.34"
         style="fill:#1b203a;fill-opacity:1;fill-rule:nonzero;stroke:none"
         transform="matrix(0.13333333,0,0,-0.13333333,0,666.66667)" /><path
         id="path140"
         d="m 3445.73,2978.75 c 0.16,-5.74 3.13,-10.31 6.63,-10.21 3.51,0.1 6.21,4.83 6.05,10.56 -0.16,5.74 -3.13,10.31 -6.63,10.21 -3.51,-0.1 -6.22,-4.83 -6.05,-10.56"
         style="fill:#1b203a;fill-opacity:1;fill-rule:nonzero;stroke:none"
         transform="matrix(0.13333333,0,0,-0.13333333,0,666.66667)" /><path
         id="path141"
         d="m 3555.83,2924.04 c 0,0 13.85,-11.5 30.28,10.73 16.44,22.22 12.27,42.91 2.99,52.21 -9.29,9.3 -29.16,4.8 -37.96,-7.79 -8.8,-12.58 -11.05,-43.67 4.69,-55.15"
         style="fill:#f89e96;fill-opacity:1;fill-rule:nonzero;stroke:none"
         transform="matrix(0.13333333,0,0,-0.13333333,0,666.66667)" /><path
         id="path142"
         d="m 3463.4,2776.24 c 0,0 158.42,121.72 213.32,123.6 54.9,1.87 95.91,-129.29 90.3,-171.15 -87.16,67.94 -264.4,71.08 -303.62,47.55"
         style="fill:#8b50ad;fill-opacity:1;fill-rule:nonzero;stroke:none"
         transform="matrix(0.13333333,0,0,-0.13333333,0,666.66667)" /><path
         id="path143"
         d="m 3961.19,792.172 c 0,0 14.94,-9.684 25.92,-50.453 2.23,-8.297 -0.84,-17.188 -7.89,-22.11 -43.59,-30.461 -103.6,-57.32 -136.24,-63.757 -28.85,-5.7 -110.29,-1.723 -111.5,8.679 -3.53,30.328 146.65,94.559 153.07,104.93 14.11,-0.891 14.89,-21.281 14.89,-21.281 0,0 55.3,-3.91 61.75,43.992"
         style="fill:#232b4d;fill-opacity:1;fill-rule:nonzero;stroke:none"
         transform="matrix(0.13333333,0,0,-0.13333333,0,666.66667)" /><path
         id="path144"
         d="m 2877.78,2043.39 223.09,-44.34 v 621.59 l -223.09,-15.23 v -562.02"
         style="fill:#f68642;fill-opacity:1;fill-rule:nonzero;stroke:none"
         transform="matrix(0.13333333,0,0,-0.13333333,0,666.66667)" /><path
         id="path145"
         d="m 2989.5,2613.04 -40.62,-2.78 v -581 l 40.62,-8.07 v 591.85"
         style="fill:#fab85c;fill-opacity:1;fill-rule:nonzero;stroke:none"
         transform="matrix(0.13333333,0,0,-0.13333333,0,666.66667)" /><path
         id="path146"
         d="m 3604.85,2030.51 -503.98,-31.46 v 621.59 h 503.98 v -590.13"
         style="fill:#f89a55;fill-opacity:1;fill-rule:nonzero;stroke:none"
         transform="matrix(0.13333333,0,0,-0.13333333,0,666.66667)" /><path
         id="path147"
         d="m 3387.31,2620.64 h -74.48 v -608.35 l 74.48,4.64 v 603.71"
         style="fill:#fbc873;fill-opacity:1;fill-rule:nonzero;stroke:none"
         transform="matrix(0.13333333,0,0,-0.13333333,0,666.66667)" /><path
         id="path148"
         d="m 3275.8,2119.74 c 0,0 -19.59,-3.58 -36.53,-0.25 -16.94,3.33 -52.36,17.32 -63.23,14.77 -10.88,-2.56 -4.03,-16.68 9.78,-21.97 13.81,-5.31 21.35,-9.38 21.35,-9.38 0,0 -70.29,-10.53 -98.34,-7.95 -20.08,-2.45 -10.49,-16.29 4.57,-17.98 15.07,-1.69 66.87,0.21 66.87,0.21 0,0 -55.81,-7.69 -75.12,-7.71 -19.31,-0.02 -19.35,-6.33 -16.64,-13.71 2.71,-7.37 87.22,-1.79 92.42,-0.61 -31.36,-15.69 -75.21,-17.47 -80.94,-20.02 -5.73,-2.56 -7.7,-12.26 2.18,-15.18 9.89,-2.92 73.53,7.11 80.69,10.3 -19.68,-11.05 -49.67,-16.97 -54.98,-20.47 -5.3,-3.52 -1.31,-13.75 16.42,-9.87 17.72,3.89 81.46,21.41 100.72,33.42 19.26,12.01 46.89,20.23 46.89,20.23 l -16.11,66.17"
         style="fill:#f89e96;fill-opacity:1;fill-rule:nonzero;stroke:none"
         transform="matrix(0.13333333,0,0,-0.13333333,0,666.66667)" /><path
         id="path149"
         d="m 3670.99,2597.3 c 0,0 -66.63,-212.88 -74.57,-230.76 -6.2,-13.94 -302.71,-221.11 -326.51,-231.98 -23.8,-10.86 -0.45,-61.35 13.86,-84.41 55.14,-7.64 274.66,95.82 313.49,115.69 79.38,40.62 134.8,116.94 152.06,164.66 13.43,37.14 95.06,195.34 84.18,305.17 -3.04,30.65 -30.18,70.75 -50.31,77.87 -38.12,13.48 -88.5,-18.06 -112.2,-116.24"
         style="fill:#8b50ad;fill-opacity:1;fill-rule:nonzero;stroke:none"
         transform="matrix(0.13333333,0,0,-0.13333333,0,666.66667)" /><path
         id="path150"
         d="m 4223.22,2828.63 223.1,-44.33 v 621.58 l -223.1,-15.23 v -562.02"
         style="fill:#f68642;fill-opacity:1;fill-rule:nonzero;stroke:none"
         transform="matrix(0.13333333,0,0,-0.13333333,0,666.66667)" /><path
         id="path151"
         d="m 4334.94,3398.28 -40.62,-2.78 v -581 l 40.62,-8.07 v 591.85"
         style="fill:#fab85c;fill-opacity:1;fill-rule:nonzero;stroke:none"
         transform="matrix(0.13333333,0,0,-0.13333333,0,666.66667)" /><path
         id="path152"
         d="m 4950.29,2815.75 -503.97,-31.45 v 621.58 l 503.97,-23.92 v -566.21"
         style="fill:#f89a55;fill-opacity:1;fill-rule:nonzero;stroke:none"
         transform="matrix(0.13333333,0,0,-0.13333333,0,666.66667)" /><path
         id="path153"
         d="m 4732.75,3395.08 -74.48,2.54 v -600.1 l 74.48,4.66 v 592.9"
         style="fill:#fbc873;fill-opacity:1;fill-rule:nonzero;stroke:none"
         transform="matrix(0.13333333,0,0,-0.13333333,0,666.66667)" /><path
         id="path154"
         d="m 4390.15,847.922 c 0,0 2,-63.774 2,-74.75 0,-10.973 -73.6,-43.391 -79.86,-45.481 -6.27,-2.089 60.64,-21.961 102.99,-17.781 42.35,4.18 39.74,2.09 43.92,9.93 4.18,7.851 -1.57,32.941 -6.8,51.242 -5.22,18.297 4.06,74.238 4.06,74.238 l -66.31,2.602"
         style="fill:#f89e96;fill-opacity:1;fill-rule:nonzero;stroke:none"
         transform="matrix(0.13333333,0,0,-0.13333333,0,666.66667)" /><path
         id="path155"
         d="m 4460.63,738.871 c 0,0 -92.52,-16.473 -114.62,-13.539 5.23,10.457 3.13,22.617 -2.09,23.137 -5.23,0.519 -25.18,-12.66 -82.03,-25.879 -30.9,-7.192 -42.41,-35.942 -11.04,-39.078 31.38,-3.141 194.1,-6.543 209.78,-3.403 15.7,3.141 0,58.762 0,58.762"
         style="fill:#232b4d;fill-opacity:1;fill-rule:nonzero;stroke:none"
         transform="matrix(0.13333333,0,0,-0.13333333,0,666.66667)" /><path
         id="path156"
         d="m 4702.04,862.719 c 0,0 15.22,-61.949 17.5,-72.688 2.29,-10.742 -62.95,-57.75 -68.65,-61.101 -5.7,-3.348 63.89,-8.871 104.44,4.039 40.55,12.89 38.43,10.301 40.89,18.851 2.46,8.539 -8.39,31.891 -17.3,48.7 -8.93,16.812 -11.49,73.449 -11.49,73.449 l -65.39,-11.25"
         style="fill:#f89e96;fill-opacity:1;fill-rule:nonzero;stroke:none"
         transform="matrix(0.13333333,0,0,-0.13333333,0,666.66667)" /><path
         id="path157"
         d="m 4790.58,776.16 c 0,0 -83.99,-40.789 -106.21,-42.519 2.92,11.308 3.58,23.339 -1.65,22.769 -5.22,-0.578 -18.63,-21.39 -69.42,-31.578 -29.79,-5.961 -32.58,-33.711 -14.5,-37.332 11.56,-2.32 51.08,-6.43 78.83,-1.371 52.92,9.652 121.45,23.391 131.09,27.543 14.69,6.34 -18.14,62.488 -18.14,62.488"
         style="fill:#232b4d;fill-opacity:1;fill-rule:nonzero;stroke:none"
         transform="matrix(0.13333333,0,0,-0.13333333,0,666.66667)" /><path
         id="path158"
         d="m 4479.85,2001.8 c 0,0 19.92,-339.84 29.21,-414.82 9.3,-74.97 193.49,-769.101 193.49,-769.101 l 79.32,16.613 c 0,0 0,524.888 -108.61,692.878 -35.38,168.87 114.89,354.19 68.23,546.33 -111.96,-1.01 -261.64,-71.9 -261.64,-71.9"
         style="fill:#232b4d;fill-opacity:1;fill-rule:nonzero;stroke:none"
         transform="matrix(0.13333333,0,0,-0.13333333,0,666.66667)" /><path
         id="path159"
         d="m 4411.1,2023.78 c 0,0 -50.19,-336.7 -56.47,-411.99 -6.27,-75.29 28.24,-798.88 28.24,-798.88 h 81.04 c 0,0 109.5,482.4 39.21,706.87 0,172.52 185.08,323.1 178.8,520.73 -109.79,21.96 -270.82,-16.73 -270.82,-16.73"
         style="fill:#232b4d;fill-opacity:1;fill-rule:nonzero;stroke:none"
         transform="matrix(0.13333333,0,0,-0.13333333,0,666.66667)" /><path
         id="path160"
         d="m 4671.06,3022.27 c 0,0 -9.04,-57.95 13.9,-107.48 -40.35,-14 -74.62,-52.6 -93.64,-49.59 -13.08,2.07 -17.54,44.61 -17.54,44.61 l 97.28,112.46"
         style="fill:#f68883;fill-opacity:1;fill-rule:nonzero;stroke:none"
         transform="matrix(0.13333333,0,0,-0.13333333,0,666.66667)" /><path
         id="path161"
         d="m 4534.25,3135.47 c 0,0 -24.88,-38.47 -27.22,-55.08 -2.32,-16.61 6.06,-32.26 -3.36,-42.22 -9.41,-9.96 -10.18,-11.15 -12.71,-17.1 -2.52,-5.94 2.77,-29.13 7.83,-31.54 -0.58,-16.2 6.35,-58.35 12.63,-72.54 6.29,-14.19 46.52,-5.42 87.9,9.65 41.37,15.06 52.95,47.77 61.35,68 8.41,20.23 63.98,41.58 30.13,101.56 -33.86,59.97 -145.62,57.4 -156.55,39.27"
         style="fill:#f89e96;fill-opacity:1;fill-rule:nonzero;stroke:none"
         transform="matrix(0.13333333,0,0,-0.13333333,0,666.66667)" /><path
         id="path162"
         d="m 4602.15,2991.18 c 0.67,4.03 10.88,35.83 14.17,75.29 -12.37,11.19 -18.72,42.19 -18.72,42.19 l -1.07,37.31 c 35.44,-3.41 76.09,-17.56 94.27,-49.77 15.42,-27.32 12.27,-46.61 3.49,-61.44 -12.25,23.61 -38.49,35.65 -50,25.22 -13.71,-12.4 -17.02,-36.34 -11.32,-59.57 3.21,-13.13 10.4,-24.18 14.17,-34.4 -9.12,-15.14 -26.29,-39.99 -46.94,-56.2 -41.01,-32.15 -91.98,-41.31 -98.26,-27.12 -6.13,13.84 -3.38,88.56 -3.16,105.56 44.35,5.96 102.75,-0.7 103.37,2.93"
         style="fill:#1b203a;fill-opacity:1;fill-rule:nonzero;stroke:none"
         transform="matrix(0.13333333,0,0,-0.13333333,0,666.66667)" /><path
         id="path163"
         d="m 4608.6,3110.61 c 0,0 -72.84,-3.23 -92.18,43.47 -19.36,46.71 4.7,86.22 28.66,86.25 23.94,0.02 36.06,-30.22 36.06,-30.22 27.77,21.1 80.22,-5.44 91.99,-30.86 54.82,10.24 48.34,-37.15 48.34,-37.15 56.7,1.04 27.77,-107.27 -50.78,-166.06 -22.83,18.72 -15.02,79.23 -15.02,79.23 l -47.07,55.34"
         style="fill:#1b203a;fill-opacity:1;fill-rule:nonzero;stroke:none"
         transform="matrix(0.13333333,0,0,-0.13333333,0,666.66667)" /><path
         id="path164"
         d="m 4525.83,3037.7 c 0.17,-5.74 3.13,-10.31 6.64,-10.21 3.51,0.1 6.21,4.82 6.06,10.56 -0.17,5.74 -3.14,10.31 -6.65,10.21 -3.5,-0.1 -6.21,-4.83 -6.05,-10.56"
         style="fill:#1b203a;fill-opacity:1;fill-rule:nonzero;stroke:none"
         transform="matrix(0.13333333,0,0,-0.13333333,0,666.66667)" /><path
         id="path165"
         d="m 4638.29,2999.34 c 0,0 13.85,-11.51 30.28,10.72 16.44,22.23 12.28,42.92 2.98,52.22 -9.28,9.3 -29.15,4.8 -37.95,-7.79 -8.81,-12.58 -11.05,-43.67 4.69,-55.15"
         style="fill:#f89e96;fill-opacity:1;fill-rule:nonzero;stroke:none"
         transform="matrix(0.13333333,0,0,-0.13333333,0,666.66667)" /><path
         id="path166"
         d="m 4573.34,3067.3 c 0,0 -11.75,29.21 -48.35,27.87 -3.69,1.01 -3.36,15.27 7.38,15.2 10.76,-0.09 38.28,-16.54 40.97,-43.07"
         style="fill:#1b203a;fill-opacity:1;fill-rule:nonzero;stroke:none"
         transform="matrix(0.13333333,0,0,-0.13333333,0,666.66667)" /><path
         id="path167"
         d="m 4535.65,2843.07 c 0,0 42.99,55.58 94.87,79.29 51.86,23.72 67.43,12.6 72.61,-10.37 5.19,-22.97 11.86,-57.06 11.86,-57.06 l -179.34,-11.86"
         style="fill:#f57654;fill-opacity:1;fill-rule:nonzero;stroke:none"
         transform="matrix(0.13333333,0,0,-0.13333333,0,666.66667)" /><path
         id="path168"
         d="m 4800.96,2761.55 c 0,0 -45.95,96.34 -124.5,115.61 -78.55,19.27 -109.68,-17.79 -131.91,-20.75 -22.24,-2.96 -64.7,-100.13 -82.27,-165.52 -5.36,-19.88 -27.09,-103.15 -37.25,-255.5 -10.91,-163.61 -57.22,-433.3 -57.22,-433.3 0,0 313.22,-26.68 406.35,0 35.32,346.82 35.44,679.43 26.8,759.46"
         style="fill:#f35b48;fill-opacity:1;fill-rule:nonzero;stroke:none"
         transform="matrix(0.13333333,0,0,-0.13333333,0,666.66667)" /><path
         id="path169"
         d="m 4258.04,2858.17 c 0,0 0.04,19.91 6.38,35.96 6.35,16.06 26.53,48.35 25.99,59.51 -0.54,11.16 -15.66,6.98 -23.38,-5.64 -7.71,-12.61 -13.09,-19.29 -13.09,-19.29 0,0 2.4,71.04 10.02,98.15 1.24,20.2 -14.11,13.27 -18.51,-1.24 -4.4,-14.5 -11.92,-65.8 -11.92,-65.8 0,0 2.55,56.28 6.04,75.28 3.49,18.99 -2.71,20.18 -10.46,18.85 -7.74,-1.33 -17.58,-85.45 -17.37,-90.78 -9.74,33.69 -3.54,77.14 -5.01,83.24 -1.48,6.09 -10.66,9.8 -15.31,0.6 -4.67,-9.19 -6.35,-73.59 -4.52,-81.22 -7.29,21.37 -7.67,51.93 -10.16,57.78 -2.49,5.86 -13.28,3.79 -12.68,-14.35 0.62,-18.14 6.28,-84 14.6,-105.11 8.32,-21.13 11.38,-49.79 11.38,-49.79 l 68,3.85"
         style="fill:#f89e96;fill-opacity:1;fill-rule:nonzero;stroke:none"
         transform="matrix(0.13333333,0,0,-0.13333333,0,666.66667)" /><path
         id="path170"
         d="m 4551.09,2844.35 c 0,0 -202.34,-131.86 -210.33,-149.73 -7.99,-17.86 -5.11,10.31 -13.93,15.87 -8.83,5.57 -14.94,8.59 -15.09,14.37 -0.15,5.79 -1.14,18.72 -3.28,26.21 -2.14,7.49 -26.23,112.68 -48.15,126.96 -21.91,14.29 -64.68,0.73 -76.51,-23.71 -1.54,-42.03 21.98,-141.6 31.51,-156.66 9.54,-15.07 9.4,-92.12 32.19,-129.31 22.78,-37.19 41.06,-46.77 90.62,-35.81 49.55,10.96 376.87,130.78 376.87,130.78 0,0 -69.45,175.69 -163.9,181.03"
         style="fill:#f35b48;fill-opacity:1;fill-rule:nonzero;stroke:none"
         transform="matrix(0.13333333,0,0,-0.13333333,0,666.66667)" /><path
         id="path171"
         d="m 4800.96,2761.55 c 0,0 18.49,-31.72 54.05,-123.13 35.55,-91.42 40.62,-309.79 -115.12,-231.92 -155.73,77.87 61.07,355.05 61.07,355.05"
         style="fill:#f35b48;fill-opacity:1;fill-rule:nonzero;stroke:none"
         transform="matrix(0.13333333,0,0,-0.13333333,0,666.66667)" /><path
         id="path172"
         d="m 2685.06,2313.56 c 0,0 19.33,-4.35 36.31,-1.74 16.98,2.6 52.79,15.05 63.5,12.06 10.72,-3 3.31,-16.75 -10.64,-21.45 -13.95,-4.7 -21.62,-8.45 -21.62,-8.45 0,0 69.47,-13.37 97.47,-11.97 19.87,-3.27 9.75,-16.63 -5.3,-17.68 -15.05,-1.07 -66.49,2.97 -66.49,2.97 0,0 55.19,-9.96 74.39,-10.78 19.2,-0.81 18.99,-7.1 15.98,-14.31 -3.01,-7.23 -86.81,1.83 -91.94,3.21 30.54,-16.89 74.07,-20.49 79.67,-23.27 5.59,-2.78 7.15,-12.5 -2.8,-14.99 -9.95,-2.5 -72.82,10.12 -79.82,13.58 19.12,-11.81 48.7,-18.93 53.83,-22.64 5.13,-3.72 0.74,-13.73 -16.73,-9.14 -17.47,4.61 -80.13,24.67 -98.79,37.42 -18.65,12.74 -45.79,22.06 -45.79,22.06 l 18.77,65.12"
         style="fill:#f89e96;fill-opacity:1;fill-rule:nonzero;stroke:none"
         transform="matrix(0.13333333,0,0,-0.13333333,0,666.66667)" /><path
         id="path173"
         d="m 2098.46,2749.98 c 0,0 69.73,-178.58 131.06,-313.5 C 2290.85,2301.57 2671,2234.9 2671,2234.9 l 27.06,81.35 c 0,0 -300.56,135.57 -322.9,145.44 -40.55,17.94 -111.2,174.72 -134.66,234.68 -25.39,64.88 -130.91,129.78 -142.04,53.61"
         style="fill:#f14282;fill-opacity:1;fill-rule:nonzero;stroke:none"
         transform="matrix(0.13333333,0,0,-0.13333333,0,666.66667)" /><path
         id="path174"
         d="m 1852.35,2098.8 c 0,0 5.33,-390.56 27.42,-525.87 22.09,-135.31 -1.38,-260.97 19.33,-383.86 20.71,-122.88 69.34,-375.871 69.34,-375.871 l 65.25,-4.14 c 0,0 16.6,504.281 11.77,613.361 -4.83,109.08 31.96,552.8 31.96,559.02 0,6.21 -14.5,144.98 -14.5,144.98 l -210.57,-27.62"
         style="fill:#f89e96;fill-opacity:1;fill-rule:nonzero;stroke:none"
         transform="matrix(0.13333333,0,0,-0.13333333,0,666.66667)" /><path
         id="path175"
         d="m 2049.59,1578.02 c 8.92,169.67 27.83,398.96 27.83,403.42 0,6.21 -14.5,144.98 -14.5,144.98 l -210.57,-27.62 c 0,0 5.33,-390.56 27.42,-525.87 4.8,-29.39 7.37,-58.3 8.79,-86.85 35.49,50.33 97.86,81.62 161.03,91.94"
         style="fill:#f68883;fill-opacity:1;fill-rule:nonzero;stroke:none"
         transform="matrix(0.13333333,0,0,-0.13333333,0,666.66667)" /><path
         id="path176"
         d="m 1864.76,1590.11 c -21.7,137.08 -21.41,507.51 -21.41,507.51 l 219.57,28.8 c 0,0 18.64,-129.8 18.64,-136.01 0,-3.84 -12.09,-258.33 -11.35,-377.46 l -2.32,1.41 2.32,-1.41 c 0.02,-3.01 0.04,-6 0.06,-8.99 -63.94,-23.57 -140.89,-22.79 -205.51,-13.85"
         style="fill:#1b203a;fill-opacity:1;fill-rule:nonzero;stroke:none"
         transform="matrix(0.13333333,0,0,-0.13333333,0,666.66667)" /><path
         id="path177"
         d="m 1961.46,811.551 c -1.39,-21.699 -5.84,-55.559 -20.11,-74.289 -22.1,-29 -63.52,-62.133 -44.19,-80.282 19.33,-18.148 164.31,-19.14 171.22,0 6.18,17.122 -23.01,130.829 -29.22,154.571 h -77.7"
         style="fill:#1b203a;fill-opacity:1;fill-rule:nonzero;stroke:none"
         transform="matrix(0.13333333,0,0,-0.13333333,0,666.66667)" /><path
         id="path178"
         d="m 1898.25,685.031 c -6.72,-10.949 -8.88,-20.73 -1.09,-28.051 19.33,-18.148 164.31,-19.14 171.22,0 1.51,4.192 0.89,14.2 -0.98,27.25 -14.09,-17.148 -146.98,-16.031 -169.15,0.801"
         style="fill:#1b203a;fill-opacity:1;fill-rule:nonzero;stroke:none"
         transform="matrix(0.13333333,0,0,-0.13333333,0,666.66667)" /><path
         id="path179"
         d="m 2261.02,2096.23 c 0,0 34.5,-387.99 12.41,-523.3 -22.1,-135.31 1.37,-260.97 -19.33,-383.86 -20.72,-122.88 -59.42,-375.871 -59.42,-375.871 l -65.24,-4.14 c 0,0 -26.54,504.281 -21.71,613.361 4.84,109.08 -3.94,552.8 -3.94,559.02 0,6.21 14.5,144.98 14.5,144.98 l 142.73,-30.19"
         style="fill:#f89e96;fill-opacity:1;fill-rule:nonzero;stroke:none"
         transform="matrix(0.13333333,0,0,-0.13333333,0,666.66667)" /><path
         id="path180"
         d="m 2275.29,1586.04 c 18.15,145.58 -14.27,510.19 -14.27,510.19 l -142.73,30.19 c 0,0 -14.5,-138.77 -14.5,-144.98 0,-5.07 5.84,-301.26 5.37,-469.46 39.54,47.02 99.07,75.73 166.13,74.06"
         style="fill:#f68883;fill-opacity:1;fill-rule:nonzero;stroke:none"
         transform="matrix(0.13333333,0,0,-0.13333333,0,666.66667)" /><path
         id="path181"
         d="m 2062.23,2006.29 c 0,6.21 -37.12,120.13 -37.12,120.13 l 244.57,-9.67 c 0,0 37.51,-369.1 22.85,-510.25 -71.33,-9.25 -152.1,-35.33 -216.86,3.17 -10.16,125.66 -13.44,392.71 -13.44,396.62"
         style="fill:#1b203a;fill-opacity:1;fill-rule:nonzero;stroke:none"
         transform="matrix(0.13333333,0,0,-0.13333333,0,666.66667)" /><path
         id="path182"
         d="m 2221.78,737.262 c -14.27,18.73 -18.72,52.59 -20.11,74.289 h -77.71 c -6.21,-23.742 -35.39,-137.449 -29.21,-154.571 6.91,-19.14 151.89,-18.148 171.22,0 19.33,18.149 -22.1,51.282 -44.19,80.282"
         style="fill:#1b203a;fill-opacity:1;fill-rule:nonzero;stroke:none"
         transform="matrix(0.13333333,0,0,-0.13333333,0,666.66667)" /><path
         id="path183"
         d="m 2095.64,683.648 c -1.8,-12.757 -2.38,-22.539 -0.89,-26.668 6.91,-19.14 151.89,-18.148 171.22,0 7.68,7.211 5.69,16.809 -0.79,27.559 -21.32,-17.078 -155.94,-18.25 -169.54,-0.891"
         style="fill:#1b203a;fill-opacity:1;fill-rule:nonzero;stroke:none"
         transform="matrix(0.13333333,0,0,-0.13333333,0,666.66667)" /><path
         id="path184"
         d="m 1766.75,2716.01 c 0,0 80.08,67.65 154.65,75.94 74.56,8.28 165.34,13.81 237.82,-14.35 38.33,-173.78 98.38,-542.98 127.55,-715.28 -237.5,-99.41 -465.5,-70.1 -465.5,-70.1 0,0 -7.24,384.12 -34.85,508.39 -27.62,124.26 -19.67,215.4 -19.67,215.4"
         style="fill:#f14282;fill-opacity:1;fill-rule:nonzero;stroke:none"
         transform="matrix(0.13333333,0,0,-0.13333333,0,666.66667)" /><path
         id="path185"
         d="m 1796.61,1985.48 c 0,0 8.77,-17.77 21.49,-29.33 12.71,-11.55 44.9,-31.55 49.32,-41.77 4.41,-10.21 -10.94,-13.1 -23.36,-5.22 -12.43,7.89 -20.17,11.49 -20.17,11.49 0,0 33.31,-62.41 52.02,-83.29 9.96,-17.5 -6.79,-18.04 -17.08,-7.01 -10.29,11.03 -39.52,53.56 -39.52,53.56 0,0 26.97,-49.16 38.42,-64.6 11.45,-15.44 6.43,-19.23 -1.07,-21.44 -7.51,-2.21 -53.19,68.63 -55.35,73.49 6.08,-34.38 30.68,-70.47 32.04,-76.57 1.36,-6.09 -5.22,-13.42 -13.42,-7.26 -8.2,6.17 -37.95,62.98 -39.65,70.59 2.85,-22.29 15.92,-49.76 16.26,-56.08 0.34,-6.33 -10.21,-9.22 -17.62,7.26 -7.41,16.47 -31.24,77.8 -33.08,100.32 -1.83,22.52 -11.67,49.47 -11.67,49.47 l 62.44,26.39"
         style="fill:#f89e96;fill-opacity:1;fill-rule:nonzero;stroke:none"
         transform="matrix(0.13333333,0,0,-0.13333333,0,666.66667)" /><path
         id="path186"
         d="m 1766.75,2716.01 c 0,0 -94.93,-166.57 -161.21,-299.13 -66.28,-132.54 121.08,-469.97 121.08,-469.97 l 80.26,30.15 c 0,0 -83.74,318.91 -90.12,342.49 -11.57,42.8 87.27,127.89 115.23,185.89 27.96,57.99 -4.14,267.87 -65.24,210.57"
         style="fill:#f14282;fill-opacity:1;fill-rule:nonzero;stroke:none"
         transform="matrix(0.13333333,0,0,-0.13333333,0,666.66667)" /><path
         id="path187"
         d="m 2003.74,2905 c 0,0 -19.61,-81.8 21.92,-104.05 41.52,-22.25 79.59,-92.62 12.68,-118 -66.9,-25.38 -104.46,73.21 -177.96,89.09 34.93,20.49 30.31,17.03 38.39,42.41 8.08,25.38 -9.23,125.16 -9.23,125.16 l 114.2,-34.61"
         style="fill:#f89e96;fill-opacity:1;fill-rule:nonzero;stroke:none"
         transform="matrix(0.13333333,0,0,-0.13333333,0,666.66667)" /><path
         id="path188"
         d="m 1899.94,2819.75 c 4.9,31.61 -10.4,119.86 -10.4,119.86 l 114.2,-34.61 c 0,0 -8.96,-37.48 -1.88,-68.6 -31.7,-14.96 -66.46,-18.66 -101.92,-16.65"
         style="fill:#f68883;fill-opacity:1;fill-rule:nonzero;stroke:none"
         transform="matrix(0.13333333,0,0,-0.13333333,0,666.66667)" /><path
         id="path189"
         d="m 2039.37,3097.83 c 0,0 21.82,-56.29 29.09,-110.55 7.26,-54.27 -11.94,-107.33 -32.18,-125.23 -20.24,-17.9 -93.61,-13.64 -126.03,44.12 -32.42,57.76 -30.39,136.37 -30.39,136.37 l 159.51,55.29"
         style="fill:#f89e96;fill-opacity:1;fill-rule:nonzero;stroke:none"
         transform="matrix(0.13333333,0,0,-0.13333333,0,666.66667)" /><path
         id="path190"
         d="m 2056.26,2936.75 c 0,0 -13.67,-21.09 -53.73,-11.73 19.75,-34.09 51.2,-44.74 53.73,11.73"
         style="fill:#ffffff;fill-opacity:1;fill-rule:nonzero;stroke:none"
         transform="matrix(0.13333333,0,0,-0.13333333,0,666.66667)" /><path
         id="path191"
         d="m 1935.58,3082.01 c 0,0 11.78,-88.7 -55.74,-122.13 -9.04,-4.47 18.14,-23.08 14.51,-29.46 -1.34,-2.35 5.19,-66.85 5.19,-66.85 -101.98,80.27 -105.3,178.08 -105.3,178.08 0,0 -13.9,90.43 54.48,116.47 45.64,17.37 93.38,-29.15 86.86,-76.11"
         style="fill:#1b203a;fill-opacity:1;fill-rule:nonzero;stroke:none"
         transform="matrix(0.13333333,0,0,-0.13333333,0,666.66667)" /><path
         id="path192"
         d="m 1911.71,3051.78 c 0,0 24.47,-26.65 92.03,-10.94 59.84,13.92 81.32,25.1 93.44,69.3 5.16,12.12 -22.23,27.37 -108.74,66.31 -47.19,21.23 -127.98,22.03 -155.13,-20.56 -8.29,-19.74 -51.23,-88.18 78.4,-104.11"
         style="fill:#1b203a;fill-opacity:1;fill-rule:nonzero;stroke:none"
         transform="matrix(0.13333333,0,0,-0.13333333,0,666.66667)" /><path
         id="path193"
         d="m 1965.38,2988.76 c -0.56,-4.02 1.26,-7.59 4.05,-7.98 2.8,-0.39 5.52,2.55 6.08,6.58 0.55,4.02 -1.26,7.6 -4.05,7.98 -2.8,0.39 -5.52,-2.56 -6.08,-6.58"
         style="fill:#1b203a;fill-opacity:1;fill-rule:nonzero;stroke:none"
         transform="matrix(0.13333333,0,0,-0.13333333,0,666.66667)" /><path
         id="path194"
         d="m 2042.2,3001.61 c 1.13,-3.64 4.09,-5.94 6.61,-5.15 2.53,0.79 3.66,4.37 2.52,7.99 -1.13,3.64 -4.09,5.94 -6.61,5.15 -2.53,-0.78 -3.66,-4.37 -2.52,-7.99"
         style="fill:#1b203a;fill-opacity:1;fill-rule:nonzero;stroke:none"
         transform="matrix(0.13333333,0,0,-0.13333333,0,666.66667)" /><path
         id="path195"
         d="m 1944.63,2988.48 c 0,0 8.23,29.43 31.93,31.81 11.16,0.2 11.06,-11.57 5.06,-12.27 -5.99,-0.7 -26.62,-4.61 -36.99,-19.54"
         style="fill:#1b203a;fill-opacity:1;fill-rule:nonzero;stroke:none"
         transform="matrix(0.13333333,0,0,-0.13333333,0,666.66667)" /><path
         id="path196"
         d="m 2065.01,3022.06 c 0,0 -14.42,12.49 -28.17,7.84 -5.16,-2.56 -1.61,-11.57 4.87,-10.5 6.49,1.07 17.33,3.71 23.3,2.66"
         style="fill:#1b203a;fill-opacity:1;fill-rule:nonzero;stroke:none"
         transform="matrix(0.13333333,0,0,-0.13333333,0,666.66667)" /><path
         id="path197"
         d="m 1898.04,2973.91 c 0,0 -17.47,35.61 -43.58,27.88 -26.12,-7.73 12.36,-82.94 43.87,-69.85 12.29,19.26 -0.29,41.97 -0.29,41.97"
         style="fill:#f89e96;fill-opacity:1;fill-rule:nonzero;stroke:none"
         transform="matrix(0.13333333,0,0,-0.13333333,0,666.66667)" /></g></g></svg>
