<?xml version="1.0" encoding="UTF-8" standalone="no"?>
<!-- Created with Inkscape (http://www.inkscape.org/) -->

<svg
   width="264.58334mm"
   height="176.05376mm"
   viewBox="0 0 264.58334 176.05376"
   version="1.1"
   id="svg1"
   xml:space="preserve"
   inkscape:export-filename="shifting.svg"
   inkscape:export-xdpi="96"
   inkscape:export-ydpi="96"
   xmlns:inkscape="http://www.inkscape.org/namespaces/inkscape"
   xmlns:sodipodi="http://sodipodi.sourceforge.net/DTD/sodipodi-0.dtd"
   xmlns="http://www.w3.org/2000/svg"
   xmlns:svg="http://www.w3.org/2000/svg"><sodipodi:namedview
     id="namedview1"
     pagecolor="#ffffff"
     bordercolor="#666666"
     borderopacity="1.0"
     inkscape:showpageshadow="2"
     inkscape:pageopacity="0.0"
     inkscape:pagecheckerboard="0"
     inkscape:deskcolor="#d1d1d1"
     inkscape:document-units="mm"><inkscape:page
       x="0"
       y="4.1438963e-09"
       width="264.58334"
       height="176.05376"
       id="page3"
       margin="0"
       bleed="0" /></sodipodi:namedview><defs
     id="defs1" /><g
     id="g1"
     inkscape:groupmode="layer"
     inkscape:label="1"
     transform="matrix(0.26458333,0,0,0.26458334,2.115573e-6,-0.33514418)"><g
       id="group-R5"><path
         id="path16"
         d="M 2888.33,2134.12 H 416.039 V 4566.26 H 2888.33 V 2134.12"
         style="fill:#d6e1f3;fill-opacity:1;fill-rule:nonzero;stroke:none"
         transform="matrix(0.13333333,0,0,-0.13333333,0,666.66667)" /><path
         id="path17"
         d="M 1560.38,2250.35 H 527.055 V 4491.07 H 1560.38 V 2250.35"
         style="fill:#bacdec;fill-opacity:1;fill-rule:nonzero;stroke:none"
         transform="matrix(0.13333333,0,0,-0.13333333,0,666.66667)" /><path
         id="path18"
         d="M 2763.8,2250.35 H 1730.48 V 4491.07 H 2763.8 V 2250.35"
         style="fill:#bacdec;fill-opacity:1;fill-rule:nonzero;stroke:none"
         transform="matrix(0.13333333,0,0,-0.13333333,0,666.66667)" /><path
         id="path19"
         d="M 998.539,2786.17 H 527.055 v -535.82 h 471.484 v 535.82"
         style="fill:#ffffff;fill-opacity:1;fill-rule:nonzero;stroke:none"
         transform="matrix(0.13333333,0,0,-0.13333333,0,666.66667)" /><path
         id="path20"
         d="M 1278.45,2250.35 H 928.563 v 886.4 h 349.887 v -886.4"
         style="fill:#ffffff;fill-opacity:1;fill-rule:nonzero;stroke:none"
         transform="matrix(0.13333333,0,0,-0.13333333,0,666.66667)" /><path
         id="path21"
         d="m 1560.38,2250.35 h -281.93 v 211.02 h 281.93 v -211.02"
         style="fill:#ffffff;fill-opacity:1;fill-rule:nonzero;stroke:none"
         transform="matrix(0.13333333,0,0,-0.13333333,0,666.66667)" /><path
         id="path22"
         d="m 2049.92,2250.35 h -319.44 v 457.32 h 319.44 v -457.32"
         style="fill:#ffffff;fill-opacity:1;fill-rule:nonzero;stroke:none"
         transform="matrix(0.13333333,0,0,-0.13333333,0,666.66667)" /><path
         id="path23"
         d="M 2271.65,3370.71 H 2006.73 V 2250.35 h 264.92 v 1120.36"
         style="fill:#ffffff;fill-opacity:1;fill-rule:nonzero;stroke:none"
         transform="matrix(0.13333333,0,0,-0.13333333,0,666.66667)" /><path
         id="path24"
         d="m 2628.73,2250.35 h -227.49 v 545.99 h 227.49 v -545.99"
         style="fill:#ffffff;fill-opacity:1;fill-rule:nonzero;stroke:none"
         transform="matrix(0.13333333,0,0,-0.13333333,0,666.66667)" /><path
         id="path25"
         d="M 2763.8,2250.35 H 2514.98 V 2439.2 H 2763.8 V 2250.35"
         style="fill:#ffffff;fill-opacity:1;fill-rule:nonzero;stroke:none"
         transform="matrix(0.13333333,0,0,-0.13333333,0,666.66667)" /><path
         id="path26"
         d="m 2605.7,2754.47 h -184.31 v 78.82 h 184.31 v -78.82"
         style="fill:#ffffff;fill-opacity:1;fill-rule:nonzero;stroke:none"
         transform="matrix(0.13333333,0,0,-0.13333333,0,666.66667)" /><path
         id="path27"
         d="m 2565.38,2793.88 h -20.16 v 233.39 h 20.16 v -233.39"
         style="fill:#ffffff;fill-opacity:1;fill-rule:nonzero;stroke:none"
         transform="matrix(0.13333333,0,0,-0.13333333,0,666.66667)" /><path
         id="path28"
         d="m 2514.98,2810.53 h -63.35 v 54.19 h 63.35 v -54.19"
         style="fill:#ffffff;fill-opacity:1;fill-rule:nonzero;stroke:none"
         transform="matrix(0.13333333,0,0,-0.13333333,0,666.66667)" /><path
         id="path29"
         d="m 2234.22,3335.76 h -184.3 v 64.04 l 184.3,78.82 v -142.86"
         style="fill:#ffffff;fill-opacity:1;fill-rule:nonzero;stroke:none"
         transform="matrix(0.13333333,0,0,-0.13333333,0,666.66667)" /><path
         id="path30"
         d="m 1966.41,2693.55 h -192.93 v 41.22 h 192.93 v -41.22"
         style="fill:#ffffff;fill-opacity:1;fill-rule:nonzero;stroke:none"
         transform="matrix(0.13333333,0,0,-0.13333333,0,666.66667)" /><path
         id="path31"
         d="M 1246.5,3072.21 H 964.289 v 226.61 H 1246.5 v -226.61"
         style="fill:#ffffff;fill-opacity:1;fill-rule:nonzero;stroke:none"
         transform="matrix(0.13333333,0,0,-0.13333333,0,666.66667)" /><path
         id="path32"
         d="m 1191.79,3227.38 h -165.35 v 219.22 l 165.35,-172.42 v -46.8"
         style="fill:#ffffff;fill-opacity:1;fill-rule:nonzero;stroke:none"
         transform="matrix(0.13333333,0,0,-0.13333333,0,666.66667)" /><path
         id="path33"
         d="M 742.559,2781.56 H 589.934 v 135.48 h 152.625 v -135.48"
         style="fill:#ffffff;fill-opacity:1;fill-rule:nonzero;stroke:none"
         transform="matrix(0.13333333,0,0,-0.13333333,0,666.66667)" /><path
         id="path34"
         d="m 817.43,2956.45 h -8.637 v -201.98 h 8.637 v 201.98"
         style="fill:#ffffff;fill-opacity:1;fill-rule:nonzero;stroke:none"
         transform="matrix(0.13333333,0,0,-0.13333333,0,666.66667)" /><path
         id="path35"
         d="m 666.25,2956.45 h -35.996 v -59.12 h 35.996 v 59.12"
         style="fill:#ffffff;fill-opacity:1;fill-rule:nonzero;stroke:none"
         transform="matrix(0.13333333,0,0,-0.13333333,0,666.66667)" /><path
         id="path36"
         d="m 1836.83,2981.08 h -11.52 v -287.53 h 11.52 v 287.53"
         style="fill:#ffffff;fill-opacity:1;fill-rule:nonzero;stroke:none"
         transform="matrix(0.13333333,0,0,-0.13333333,0,666.66667)" /><path
         id="path37"
         d="m 1908.82,2810.53 h -18.62 v -134.87 h 18.62 v 134.87"
         style="fill:#ffffff;fill-opacity:1;fill-rule:nonzero;stroke:none"
         transform="matrix(0.13333333,0,0,-0.13333333,0,666.66667)" /><path
         id="path38"
         d="m 1043.71,3013.1 h -45.171 v 71.42 h 45.171 v -71.42"
         style="fill:#d6e1f3;fill-opacity:1;fill-rule:nonzero;stroke:none"
         transform="matrix(0.13333333,0,0,-0.13333333,0,666.66667)" /><path
         id="path39"
         d="m 1131.7,3013.1 h -45.18 v 71.42 h 45.18 v -71.42"
         style="fill:#d6e1f3;fill-opacity:1;fill-rule:nonzero;stroke:none"
         transform="matrix(0.13333333,0,0,-0.13333333,0,666.66667)" /><path
         id="path40"
         d="m 1219.68,3013.1 h -45.17 v 71.42 h 45.17 v -71.42"
         style="fill:#d6e1f3;fill-opacity:1;fill-rule:nonzero;stroke:none"
         transform="matrix(0.13333333,0,0,-0.13333333,0,666.66667)" /><path
         id="path41"
         d="m 1043.71,2891.17 h -45.171 v 71.43 h 45.171 v -71.43"
         style="fill:#d6e1f3;fill-opacity:1;fill-rule:nonzero;stroke:none"
         transform="matrix(0.13333333,0,0,-0.13333333,0,666.66667)" /><path
         id="path42"
         d="m 1131.7,2891.17 h -45.18 v 71.43 h 45.18 v -71.43"
         style="fill:#d6e1f3;fill-opacity:1;fill-rule:nonzero;stroke:none"
         transform="matrix(0.13333333,0,0,-0.13333333,0,666.66667)" /><path
         id="path43"
         d="m 1219.68,2891.17 h -45.17 v 71.43 h 45.17 v -71.43"
         style="fill:#d6e1f3;fill-opacity:1;fill-rule:nonzero;stroke:none"
         transform="matrix(0.13333333,0,0,-0.13333333,0,666.66667)" /><path
         id="path44"
         d="m 1043.71,2769.25 h -45.171 v 71.43 h 45.171 v -71.43"
         style="fill:#d6e1f3;fill-opacity:1;fill-rule:nonzero;stroke:none"
         transform="matrix(0.13333333,0,0,-0.13333333,0,666.66667)" /><path
         id="path45"
         d="m 1131.7,2769.25 h -45.18 v 71.43 h 45.18 v -71.43"
         style="fill:#d6e1f3;fill-opacity:1;fill-rule:nonzero;stroke:none"
         transform="matrix(0.13333333,0,0,-0.13333333,0,666.66667)" /><path
         id="path46"
         d="m 1219.68,2769.25 h -45.17 v 71.43 h 45.17 v -71.43"
         style="fill:#d6e1f3;fill-opacity:1;fill-rule:nonzero;stroke:none"
         transform="matrix(0.13333333,0,0,-0.13333333,0,666.66667)" /><path
         id="path47"
         d="m 1043.71,2647.33 h -45.171 v 71.43 h 45.171 v -71.43"
         style="fill:#d6e1f3;fill-opacity:1;fill-rule:nonzero;stroke:none"
         transform="matrix(0.13333333,0,0,-0.13333333,0,666.66667)" /><path
         id="path48"
         d="m 1131.7,2647.33 h -45.18 v 71.43 h 45.18 v -71.43"
         style="fill:#d6e1f3;fill-opacity:1;fill-rule:nonzero;stroke:none"
         transform="matrix(0.13333333,0,0,-0.13333333,0,666.66667)" /><path
         id="path49"
         d="m 1219.68,2647.33 h -45.17 v 71.43 h 45.17 v -71.43"
         style="fill:#d6e1f3;fill-opacity:1;fill-rule:nonzero;stroke:none"
         transform="matrix(0.13333333,0,0,-0.13333333,0,666.66667)" /><path
         id="path50"
         d="m 687.227,2639.01 h -87.559 v 71.43 h 87.559 v -71.43"
         style="fill:#d6e1f3;fill-opacity:1;fill-rule:nonzero;stroke:none"
         transform="matrix(0.13333333,0,0,-0.13333333,0,666.66667)" /><path
         id="path51"
         d="m 857.746,2639.01 h -87.558 v 71.43 h 87.558 v -71.43"
         style="fill:#d6e1f3;fill-opacity:1;fill-rule:nonzero;stroke:none"
         transform="matrix(0.13333333,0,0,-0.13333333,0,666.66667)" /><path
         id="path52"
         d="m 687.227,2528.17 h -87.559 v 71.43 h 87.559 v -71.43"
         style="fill:#d6e1f3;fill-opacity:1;fill-rule:nonzero;stroke:none"
         transform="matrix(0.13333333,0,0,-0.13333333,0,666.66667)" /><path
         id="path53"
         d="m 857.746,2528.17 h -87.558 v 71.43 h 87.558 v -71.43"
         style="fill:#d6e1f3;fill-opacity:1;fill-rule:nonzero;stroke:none"
         transform="matrix(0.13333333,0,0,-0.13333333,0,666.66667)" /><path
         id="path54"
         d="m 687.227,2417.34 h -87.559 v 71.42 h 87.559 v -71.42"
         style="fill:#d6e1f3;fill-opacity:1;fill-rule:nonzero;stroke:none"
         transform="matrix(0.13333333,0,0,-0.13333333,0,666.66667)" /><path
         id="path55"
         d="m 857.746,2417.34 h -87.558 v 71.42 h 87.558 v -71.42"
         style="fill:#d6e1f3;fill-opacity:1;fill-rule:nonzero;stroke:none"
         transform="matrix(0.13333333,0,0,-0.13333333,0,666.66667)" /><path
         id="path56"
         d="m 687.227,2306.5 h -87.559 v 71.42 h 87.559 v -71.42"
         style="fill:#d6e1f3;fill-opacity:1;fill-rule:nonzero;stroke:none"
         transform="matrix(0.13333333,0,0,-0.13333333,0,666.66667)" /><path
         id="path57"
         d="m 857.746,2306.5 h -87.558 v 71.42 h 87.558 v -71.42"
         style="fill:#d6e1f3;fill-opacity:1;fill-rule:nonzero;stroke:none"
         transform="matrix(0.13333333,0,0,-0.13333333,0,666.66667)" /><path
         id="path58"
         d="m 1043.71,2525.41 h -45.171 v 71.43 h 45.171 v -71.43"
         style="fill:#d6e1f3;fill-opacity:1;fill-rule:nonzero;stroke:none"
         transform="matrix(0.13333333,0,0,-0.13333333,0,666.66667)" /><path
         id="path59"
         d="m 1131.7,2525.41 h -45.18 v 71.43 h 45.18 v -71.43"
         style="fill:#d6e1f3;fill-opacity:1;fill-rule:nonzero;stroke:none"
         transform="matrix(0.13333333,0,0,-0.13333333,0,666.66667)" /><path
         id="path60"
         d="m 1219.68,2525.41 h -45.17 v 71.43 h 45.17 v -71.43"
         style="fill:#d6e1f3;fill-opacity:1;fill-rule:nonzero;stroke:none"
         transform="matrix(0.13333333,0,0,-0.13333333,0,666.66667)" /><path
         id="path61"
         d="m 1043.71,2403.49 h -45.171 v 71.42 h 45.171 v -71.42"
         style="fill:#d6e1f3;fill-opacity:1;fill-rule:nonzero;stroke:none"
         transform="matrix(0.13333333,0,0,-0.13333333,0,666.66667)" /><path
         id="path62"
         d="m 1131.7,2403.49 h -45.18 v 71.42 h 45.18 v -71.42"
         style="fill:#d6e1f3;fill-opacity:1;fill-rule:nonzero;stroke:none"
         transform="matrix(0.13333333,0,0,-0.13333333,0,666.66667)" /><path
         id="path63"
         d="m 1219.68,2403.49 h -45.17 v 71.42 h 45.17 v -71.42"
         style="fill:#d6e1f3;fill-opacity:1;fill-rule:nonzero;stroke:none"
         transform="matrix(0.13333333,0,0,-0.13333333,0,666.66667)" /><path
         id="path64"
         d="m 2084.48,3227.38 h -20.16 v 108.38 h 20.16 v -108.38"
         style="fill:#d6e1f3;fill-opacity:1;fill-rule:nonzero;stroke:none"
         transform="matrix(0.13333333,0,0,-0.13333333,0,666.66667)" /><path
         id="path65"
         d="m 2139.19,3227.38 h -20.16 v 108.38 h 20.16 v -108.38"
         style="fill:#d6e1f3;fill-opacity:1;fill-rule:nonzero;stroke:none"
         transform="matrix(0.13333333,0,0,-0.13333333,0,666.66667)" /><path
         id="path66"
         d="m 2084.48,3082.56 h -20.16 v 108.37 h 20.16 v -108.37"
         style="fill:#d6e1f3;fill-opacity:1;fill-rule:nonzero;stroke:none"
         transform="matrix(0.13333333,0,0,-0.13333333,0,666.66667)" /><path
         id="path67"
         d="m 2139.19,3082.56 h -20.16 v 108.37 h 20.16 v -108.37"
         style="fill:#d6e1f3;fill-opacity:1;fill-rule:nonzero;stroke:none"
         transform="matrix(0.13333333,0,0,-0.13333333,0,666.66667)" /><path
         id="path68"
         d="m 2084.48,2937.74 h -20.16 v 108.37 h 20.16 v -108.37"
         style="fill:#d6e1f3;fill-opacity:1;fill-rule:nonzero;stroke:none"
         transform="matrix(0.13333333,0,0,-0.13333333,0,666.66667)" /><path
         id="path69"
         d="m 2139.19,2937.74 h -20.16 v 108.37 h 20.16 v -108.37"
         style="fill:#d6e1f3;fill-opacity:1;fill-rule:nonzero;stroke:none"
         transform="matrix(0.13333333,0,0,-0.13333333,0,666.66667)" /><path
         id="path70"
         d="m 2084.48,2792.92 h -20.16 v 108.37 h 20.16 v -108.37"
         style="fill:#d6e1f3;fill-opacity:1;fill-rule:nonzero;stroke:none"
         transform="matrix(0.13333333,0,0,-0.13333333,0,666.66667)" /><path
         id="path71"
         d="m 2139.19,2792.92 h -20.16 v 108.37 h 20.16 v -108.37"
         style="fill:#d6e1f3;fill-opacity:1;fill-rule:nonzero;stroke:none"
         transform="matrix(0.13333333,0,0,-0.13333333,0,666.66667)" /><path
         id="path72"
         d="m 2084.48,2648.09 h -20.16 v 108.38 h 20.16 v -108.38"
         style="fill:#d6e1f3;fill-opacity:1;fill-rule:nonzero;stroke:none"
         transform="matrix(0.13333333,0,0,-0.13333333,0,666.66667)" /><path
         id="path73"
         d="m 2139.19,2648.09 h -20.16 v 108.38 h 20.16 v -108.38"
         style="fill:#d6e1f3;fill-opacity:1;fill-rule:nonzero;stroke:none"
         transform="matrix(0.13333333,0,0,-0.13333333,0,666.66667)" /><path
         id="path74"
         d="m 2084.48,2503.27 h -20.16 v 108.38 h 20.16 v -108.38"
         style="fill:#d6e1f3;fill-opacity:1;fill-rule:nonzero;stroke:none"
         transform="matrix(0.13333333,0,0,-0.13333333,0,666.66667)" /><path
         id="path75"
         d="m 2139.19,2503.27 h -20.16 v 108.38 h 20.16 v -108.38"
         style="fill:#d6e1f3;fill-opacity:1;fill-rule:nonzero;stroke:none"
         transform="matrix(0.13333333,0,0,-0.13333333,0,666.66667)" /><path
         id="path76"
         d="m 2084.48,2358.45 h -20.16 v 108.38 h 20.16 v -108.38"
         style="fill:#d6e1f3;fill-opacity:1;fill-rule:nonzero;stroke:none"
         transform="matrix(0.13333333,0,0,-0.13333333,0,666.66667)" /><path
         id="path77"
         d="m 2139.19,2358.45 h -20.16 v 108.38 h 20.16 v -108.38"
         style="fill:#d6e1f3;fill-opacity:1;fill-rule:nonzero;stroke:none"
         transform="matrix(0.13333333,0,0,-0.13333333,0,666.66667)" /><path
         id="path78"
         d="m 2591.3,2734.77 h -155.51 v 19.7 h 155.51 v -19.7"
         style="fill:#d6e1f3;fill-opacity:1;fill-rule:nonzero;stroke:none"
         transform="matrix(0.13333333,0,0,-0.13333333,0,666.66667)" /><path
         id="path79"
         d="m 2591.3,2683.7 h -155.51 v 19.7 h 155.51 v -19.7"
         style="fill:#d6e1f3;fill-opacity:1;fill-rule:nonzero;stroke:none"
         transform="matrix(0.13333333,0,0,-0.13333333,0,666.66667)" /><path
         id="path80"
         d="m 2591.3,2632.63 h -155.51 v 19.71 h 155.51 v -19.71"
         style="fill:#d6e1f3;fill-opacity:1;fill-rule:nonzero;stroke:none"
         transform="matrix(0.13333333,0,0,-0.13333333,0,666.66667)" /><path
         id="path81"
         d="m 2591.3,2581.56 h -155.51 v 19.71 h 155.51 v -19.71"
         style="fill:#d6e1f3;fill-opacity:1;fill-rule:nonzero;stroke:none"
         transform="matrix(0.13333333,0,0,-0.13333333,0,666.66667)" /><path
         id="path82"
         d="m 2591.3,2530.49 h -155.51 v 19.71 h 155.51 v -19.71"
         style="fill:#d6e1f3;fill-opacity:1;fill-rule:nonzero;stroke:none"
         transform="matrix(0.13333333,0,0,-0.13333333,0,666.66667)" /><path
         id="path83"
         d="m 2591.3,2479.43 h -155.51 v 19.7 h 155.51 v -19.7"
         style="fill:#d6e1f3;fill-opacity:1;fill-rule:nonzero;stroke:none"
         transform="matrix(0.13333333,0,0,-0.13333333,0,666.66667)" /><path
         id="path84"
         d="m 2591.3,2428.35 h -155.51 v 19.71 h 155.51 v -19.71"
         style="fill:#d6e1f3;fill-opacity:1;fill-rule:nonzero;stroke:none"
         transform="matrix(0.13333333,0,0,-0.13333333,0,666.66667)" /><path
         id="path85"
         d="m 2591.3,2377.29 h -155.51 v 19.7 h 155.51 v -19.7"
         style="fill:#d6e1f3;fill-opacity:1;fill-rule:nonzero;stroke:none"
         transform="matrix(0.13333333,0,0,-0.13333333,0,666.66667)" /><path
         id="path86"
         d="m 2591.3,2326.22 h -155.51 v 19.7 h 155.51 v -19.7"
         style="fill:#d6e1f3;fill-opacity:1;fill-rule:nonzero;stroke:none"
         transform="matrix(0.13333333,0,0,-0.13333333,0,666.66667)" /><path
         id="path87"
         d="m 6461.85,4237.43 c 0,42.41 -34.38,76.79 -76.78,76.79 -42.41,0 -76.79,-34.38 -76.79,-76.79 0,-42.41 34.38,-76.79 76.79,-76.79 42.4,0 76.78,34.38 76.78,76.79"
         style="fill:#bacdec;fill-opacity:1;fill-rule:nonzero;stroke:none"
         transform="matrix(0.13333333,0,0,-0.13333333,0,666.66667)" /><path
         id="path88"
         d="m 6395.07,4506.79 h -20 v 483.71 h 20 v -483.71"
         style="fill:#d6e1f3;fill-opacity:1;fill-rule:nonzero;stroke:none"
         transform="matrix(0.13333333,0,0,-0.13333333,0,666.66667)" /><path
         id="path89"
         d="m 6686.71,4253.45 c 0,166.59 -135.05,301.64 -301.64,301.64 -166.59,0 -301.65,-135.05 -301.65,-301.64 0,-48.16 603.29,-48.16 603.29,0"
         style="fill:#d6e1f3;fill-opacity:1;fill-rule:nonzero;stroke:none"
         transform="matrix(0.13333333,0,0,-0.13333333,0,666.66667)" /><path
         id="path90"
         d="m 6434.64,4555.09 c 0,27.38 -22.2,49.57 -49.57,49.57 -27.39,0 -49.58,-22.19 -49.58,-49.57 0,-27.38 22.19,-49.57 49.58,-49.57 27.37,0 49.57,22.19 49.57,49.57"
         style="fill:#d6e1f3;fill-opacity:1;fill-rule:nonzero;stroke:none"
         transform="matrix(0.13333333,0,0,-0.13333333,0,666.66667)" /><path
         id="path91"
         d="m 3575.61,4237.43 c 0,42.41 -34.38,76.79 -76.78,76.79 -42.41,0 -76.79,-34.38 -76.79,-76.79 0,-42.41 34.38,-76.79 76.79,-76.79 42.4,0 76.78,34.38 76.78,76.79"
         style="fill:#bacdec;fill-opacity:1;fill-rule:nonzero;stroke:none"
         transform="matrix(0.13333333,0,0,-0.13333333,0,666.66667)" /><path
         id="path92"
         d="m 3508.83,4506.79 h -20 v 483.71 h 20 v -483.71"
         style="fill:#d6e1f3;fill-opacity:1;fill-rule:nonzero;stroke:none"
         transform="matrix(0.13333333,0,0,-0.13333333,0,666.66667)" /><path
         id="path93"
         d="m 3800.47,4253.45 c 0,166.59 -135.05,301.64 -301.64,301.64 -166.6,0 -301.64,-135.05 -301.64,-301.64 0,-48.16 603.28,-48.16 603.28,0"
         style="fill:#d6e1f3;fill-opacity:1;fill-rule:nonzero;stroke:none"
         transform="matrix(0.13333333,0,0,-0.13333333,0,666.66667)" /><path
         id="path94"
         d="m 3548.4,4555.09 c 0,27.38 -22.2,49.57 -49.57,49.57 -27.38,0 -49.57,-22.19 -49.57,-49.57 0,-27.38 22.19,-49.57 49.57,-49.57 27.37,0 49.57,22.19 49.57,49.57"
         style="fill:#d6e1f3;fill-opacity:1;fill-rule:nonzero;stroke:none"
         transform="matrix(0.13333333,0,0,-0.13333333,0,666.66667)" /><path
         id="path99"
         d="m 3971,544.711 c -386.72,0 -700.22,43.719 -700.22,97.648 0,53.95 313.5,97.672 700.22,97.672 298.66,0 553.64,-26.07 654.28,-62.801 l 45.83,-36.582 C 4664.55,587.512 4353.62,544.711 3971,544.711"
         style="fill:#b2b5d9;fill-opacity:1;fill-rule:nonzero;stroke:none"
         transform="matrix(0.13333333,0,0,-0.13333333,0,666.66667)" /><path
         id="path100"
         d="M 4527.36,682.141 H 3422.45 V 2177.99 H 4527.36 V 682.141"
         style="fill:#4960b6;fill-opacity:1;fill-rule:nonzero;stroke:none"
         transform="matrix(0.13333333,0,0,-0.13333333,0,666.66667)" /><path
         id="path101"
         d="m 4443.18,1907.25 h -944.35 v 176.51 h 944.35 v -176.51"
         style="fill:#3654ad;fill-opacity:1;fill-rule:nonzero;stroke:none"
         transform="matrix(0.13333333,0,0,-0.13333333,0,666.66667)" /><path
         id="path102"
         d="m 4443.18,1923.44 h -944.35 v 176.5 h 944.35 v -176.5"
         style="fill:#748ed0;fill-opacity:1;fill-rule:nonzero;stroke:none"
         transform="matrix(0.13333333,0,0,-0.13333333,0,666.66667)" /><path
         id="path103"
         d="M 3926.09,775.09 H 3498.83 V 1814.3 h 427.26 V 775.09"
         style="fill:#3654ad;fill-opacity:1;fill-rule:nonzero;stroke:none"
         transform="matrix(0.13333333,0,0,-0.13333333,0,666.66667)" /><path
         id="path104"
         d="M 4443.18,775.09 H 4015.92 V 1814.3 h 427.26 V 775.09"
         style="fill:#3654ad;fill-opacity:1;fill-rule:nonzero;stroke:none"
         transform="matrix(0.13333333,0,0,-0.13333333,0,666.66667)" /><path
         id="path105"
         d="M 3926.09,795.352 H 3498.83 V 1834.56 h 427.26 V 795.352"
         style="fill:#748ed0;fill-opacity:1;fill-rule:nonzero;stroke:none"
         transform="matrix(0.13333333,0,0,-0.13333333,0,666.66667)" /><path
         id="path106"
         d="M 4443.18,795.352 H 4015.92 V 1834.56 h 427.26 V 795.352"
         style="fill:#748ed0;fill-opacity:1;fill-rule:nonzero;stroke:none"
         transform="matrix(0.13333333,0,0,-0.13333333,0,666.66667)" /><path
         id="path107"
         d="m 3876.22,1375.43 c 0,19.99 -16.2,36.19 -36.18,36.19 -19.99,0 -36.19,-16.2 -36.19,-36.19 0,-19.98 16.2,-36.18 36.19,-36.18 19.98,0 36.18,16.2 36.18,36.18"
         style="fill:#ffffff;fill-opacity:1;fill-rule:nonzero;stroke:none"
         transform="matrix(0.13333333,0,0,-0.13333333,0,666.66667)" /><path
         id="path108"
         d="m 4011.09,2011.69 c 0,19.98 -16.2,36.19 -36.19,36.19 -19.98,0 -36.18,-16.21 -36.18,-36.19 0,-19.99 16.2,-36.19 36.18,-36.19 19.99,0 36.19,16.2 36.19,36.19"
         style="fill:#ffffff;fill-opacity:1;fill-rule:nonzero;stroke:none"
         transform="matrix(0.13333333,0,0,-0.13333333,0,666.66667)" /><path
         id="path109"
         d="m 4132.4,1375.43 c 0,19.99 -16.21,36.19 -36.19,36.19 -19.99,0 -36.19,-16.2 -36.19,-36.19 0,-19.98 16.2,-36.18 36.19,-36.18 19.98,0 36.19,16.2 36.19,36.18"
         style="fill:#ffffff;fill-opacity:1;fill-rule:nonzero;stroke:none"
         transform="matrix(0.13333333,0,0,-0.13333333,0,666.66667)" /><path
         id="path110"
         d="m 3612.56,641.32 h -148.2 v 40.821 h 148.2 V 641.32"
         style="fill:#3654ad;fill-opacity:1;fill-rule:nonzero;stroke:none"
         transform="matrix(0.13333333,0,0,-0.13333333,0,666.66667)" /><path
         id="path111"
         d="m 4481.09,641.32 h -148.2 v 40.821 h 148.2 V 641.32"
         style="fill:#3654ad;fill-opacity:1;fill-rule:nonzero;stroke:none"
         transform="matrix(0.13333333,0,0,-0.13333333,0,666.66667)" /><path
         id="path112"
         d="m 4443.18,2177.99 h -566.96 v 514.4 h 566.96 v -514.4"
         style="fill:#f9b27d;fill-opacity:1;fill-rule:nonzero;stroke:none"
         transform="matrix(0.13333333,0,0,-0.13333333,0,666.66667)" /><path
         id="path113"
         d="m 4140.54,2177.99 h -364 v 514.4 h 364 v -514.4"
         style="fill:#f68464;fill-opacity:1;fill-rule:nonzero;stroke:none"
         transform="matrix(0.13333333,0,0,-0.13333333,0,666.66667)" /><path
         id="path114"
         d="m 4336.66,2601.76 h -68.97 c -10.71,0 -19.39,8.69 -19.39,19.4 0,10.72 8.68,19.4 19.39,19.4 h 68.97 c 10.71,0 19.39,-8.68 19.39,-19.4 0,-10.71 -8.68,-19.4 -19.39,-19.4"
         style="fill:#f68464;fill-opacity:1;fill-rule:nonzero;stroke:none"
         transform="matrix(0.13333333,0,0,-0.13333333,0,666.66667)" /><path
         id="path115"
         d="m 3983.02,2601.76 h -68.97 c -10.71,0 -19.39,8.69 -19.39,19.4 0,10.72 8.68,19.4 19.39,19.4 h 68.97 c 10.71,0 19.4,-8.68 19.4,-19.4 0,-10.71 -8.69,-19.4 -19.4,-19.4"
         style="fill:#da704e;fill-opacity:1;fill-rule:nonzero;stroke:none"
         transform="matrix(0.13333333,0,0,-0.13333333,0,666.66667)" /><path
         id="path116"
         d="m 4140.54,2544.49 h -364 v 14.96 h 364 v -14.96"
         style="fill:#da704e;fill-opacity:1;fill-rule:nonzero;stroke:none"
         transform="matrix(0.13333333,0,0,-0.13333333,0,666.66667)" /><path
         id="path117"
         d="m 4443.18,2559.45 h -302.64 v -14.96 h 302.64 v 14.96"
         style="fill:#f68464;fill-opacity:1;fill-rule:nonzero;stroke:none"
         transform="matrix(0.13333333,0,0,-0.13333333,0,666.66667)" /><path
         id="path118"
         d="m 2418.48,544.711 c -386.72,0 -700.22,43.719 -700.22,97.648 0,53.95 313.5,97.672 700.22,97.672 386.72,0 700.22,-43.722 700.22,-97.672 0,-53.929 -313.5,-97.648 -700.22,-97.648"
         style="fill:#b2b5d9;fill-opacity:1;fill-rule:nonzero;stroke:none"
         transform="matrix(0.13333333,0,0,-0.13333333,0,666.66667)" /><path
         id="path119"
         d="m 1941.25,632.98 h -75.15 l -20.89,157.579 h 96.04 V 632.98"
         style="fill:#3654ad;fill-opacity:1;fill-rule:nonzero;stroke:none"
         transform="matrix(0.13333333,0,0,-0.13333333,0,666.66667)" /><path
         id="path120"
         d="m 2952.97,632.98 h 75.15 l 20.9,157.579 h -96.05 V 632.98"
         style="fill:#3654ad;fill-opacity:1;fill-rule:nonzero;stroke:none"
         transform="matrix(0.13333333,0,0,-0.13333333,0,666.66667)" /><path
         id="path121"
         d="m 3102.42,756.25 c -3.76,-3.551 -13.27,-6.801 -27.78,-9.918 -31.23,-6.582 -85.34,-12.012 -154.49,-16.301 -246.72,-15.25 -683.75,-15.769 -943.73,-1.672 -84.82,4.59 -150.83,10.86 -185.2,18.59 -12.74,2.832 -21.2,5.949 -24.65,9.301 -52.44,50.762 -54.32,805.23 -36.98,863.61 17.45,58.29 193.56,124.61 193.56,124.61 0,0 -26.95,389.83 8.56,509.84 5.33,18.07 57.35,32.07 134.95,42.1 213.19,81.36 577,76.56 721.15,1.78 85.65,-10.03 143.73,-24.76 149.37,-43.88 35.51,-120.01 8.66,-509.84 8.66,-509.84 0,0 176.01,-66.32 193.45,-124.61 17.45,-58.38 15.57,-812.848 -36.87,-863.61"
         style="fill:#f7964c;fill-opacity:1;fill-rule:nonzero;stroke:none"
         transform="matrix(0.13333333,0,0,-0.13333333,0,666.66667)" /><path
         id="path122"
         d="M 3074.64,1202.16 V 746.332 c -31.23,-6.582 -85.34,-12.012 -154.49,-16.301 -246.72,-15.25 -683.75,-15.769 -943.73,-1.672 -84.82,4.59 -150.83,10.86 -185.2,18.59 v 455.211 h 1283.42"
         style="fill:#f58a4a;fill-opacity:1;fill-rule:nonzero;stroke:none"
         transform="matrix(0.13333333,0,0,-0.13333333,0,666.66667)" /><path
         id="path123"
         d="M 3031.52,1127.69 H 1849.46 v 196.95 c 0,0 306.96,44.85 615.46,44.85 308.5,0 566.6,-44.85 566.6,-44.85 v -196.95"
         style="fill:#fbc24d;fill-opacity:1;fill-rule:nonzero;stroke:none"
         transform="matrix(0.13333333,0,0,-0.13333333,0,666.66667)" /><path
         id="path124"
         d="m 2055.07,1743.22 14.53,-393.5 -196.31,-90.69 -25.63,307.06 207.41,177.13"
         style="fill:#f58a4a;fill-opacity:1;fill-rule:nonzero;stroke:none"
         transform="matrix(0.13333333,0,0,-0.13333333,0,666.66667)" /><path
         id="path125"
         d="m 2808.7,1738.53 v -385.87 l 217.39,-93.63 29.37,350.15 c 0,0 -217.52,143.76 -246.76,129.35"
         style="fill:#f58a4a;fill-opacity:1;fill-rule:nonzero;stroke:none"
         transform="matrix(0.13333333,0,0,-0.13333333,0,666.66667)" /><path
         id="path126"
         d="m 2055.07,1743.22 c -105.81,-71.75 -128.89,-153.23 -128.89,-153.23 0,0 -22.46,-416.87 50.24,-861.631 -116.36,6.371 -197.21,15.661 -209.85,27.891 -52.44,50.762 -54.32,805.23 -36.98,863.61 17.45,58.29 193.56,124.61 193.56,124.61 0,0 -26.95,389.83 8.56,509.84 5.33,18.07 57.35,32.07 134.95,42.1 0,0 -39.89,-217.89 -11.59,-553.19"
         style="fill:#fcd06b;fill-opacity:1;fill-rule:nonzero;stroke:none"
         transform="matrix(0.13333333,0,0,-0.13333333,0,666.66667)" /><path
         id="path127"
         d="m 3102.42,756.25 c -11.59,-11.18 -80.84,-19.949 -182.27,-26.219 49.93,269.391 52.96,783.709 44.29,831.239 -9.51,52.75 -41.37,76.66 -155.74,177.26 19.64,263.32 -20.89,559.66 -20.89,559.66 85.65,-10.03 143.73,-24.76 149.37,-43.88 35.51,-120.01 8.66,-509.84 8.66,-509.84 0,0 176.01,-66.32 193.45,-124.61 17.45,-58.38 15.57,-812.848 -36.87,-863.61"
         style="fill:#fcd06b;fill-opacity:1;fill-rule:nonzero;stroke:none"
         transform="matrix(0.13333333,0,0,-0.13333333,0,666.66667)" /><path
         id="path128"
         d="m 355.867,618.391 h 787.363 v 714.371 H 355.867 Z"
         style="fill:#f9b27d;fill-opacity:1;fill-rule:nonzero;stroke:none"
         transform="matrix(0.13333333,0,0,-0.13333333,0,666.66667)" /><path
         id="path129"
         d="M 722.93,618.391 H 217.434 V 1332.77 H 722.93 V 618.391"
         style="fill:#f68464;fill-opacity:1;fill-rule:nonzero;stroke:none"
         transform="matrix(0.13333333,0,0,-0.13333333,0,666.66667)" /><path
         id="path130"
         d="m 473.387,871.07 -159.918,75.039 36.738,78.291 159.918,-75.06 -36.738,-78.27"
         style="fill:#ffffff;fill-opacity:1;fill-rule:nonzero;stroke:none"
         transform="matrix(0.13333333,0,0,-0.13333333,0,666.66667)" /><path
         id="path131"
         d="M 1002.84,1206.92 H 891.98 c -10.71,0 -19.398,8.68 -19.398,19.39 v 15.08 c 0,10.71 8.688,19.39 19.398,19.39 h 110.86 c 10.71,0 19.39,-8.68 19.39,-19.39 v -15.08 c 0,-10.71 -8.68,-19.39 -19.39,-19.39"
         style="fill:#f68464;fill-opacity:1;fill-rule:nonzero;stroke:none"
         transform="matrix(0.13333333,0,0,-0.13333333,0,666.66667)" /><path
         id="path132"
         d="m 511.723,1206.92 h -110.86 c -10.715,0 -19.394,8.68 -19.394,19.39 v 15.08 c 0,10.71 8.679,19.39 19.394,19.39 h 110.86 c 10.711,0 19.398,-8.68 19.398,-19.39 v -15.08 c 0,-10.71 -8.687,-19.39 -19.398,-19.39"
         style="fill:#da704e;fill-opacity:1;fill-rule:nonzero;stroke:none"
         transform="matrix(0.13333333,0,0,-0.13333333,0,666.66667)" /><path
         id="path133"
         d="M 722.93,1127.37 H 217.434 v 20.79 H 722.93 v -20.79"
         style="fill:#da704e;fill-opacity:1;fill-rule:nonzero;stroke:none"
         transform="matrix(0.13333333,0,0,-0.13333333,0,666.66667)" /><path
         id="path134"
         d="m 1143.23,1148.16 h -420.3 v -20.79 h 420.3 v 20.79"
         style="fill:#f68464;fill-opacity:1;fill-rule:nonzero;stroke:none"
         transform="matrix(0.13333333,0,0,-0.13333333,0,666.66667)" /><path
         id="path135"
         d="m 1130.72,356.512 c -181.712,0 -329.013,26.359 -329.013,58.898 0,22.82 72.445,42.61 178.398,52.399 l 6.84,-56.239 h 282.165 l 6.71,56.731 c 108.93,-9.602 183.9,-29.68 183.9,-52.891 0,-32.539 -147.3,-58.898 -329,-58.898"
         style="fill:#b2b5d9;fill-opacity:1;fill-rule:nonzero;stroke:none"
         transform="matrix(0.13333333,0,0,-0.13333333,0,666.66667)" /><path
         id="path136"
         d="m 1114.69,1050.23 c -7.07,45.02 -30.34,87.33 -64.57,117.42 -28.76,25.29 -64.569,41.93 -91.714,68.94 -26.199,26.09 -43.086,61.34 -46.98,98.1 -10.52,99.24 69.933,196.68 42.39,292.6 -7.972,27.77 -24.457,52.2 -36.777,78.34 -25.523,54.14 -32.871,116.66 -20.594,175.25 6.485,30.97 18.282,60.94 20.86,92.47 3.383,41.44 -9.371,82.87 -6.524,124.34 2.844,41.47 30.676,87.39 72.246,86.79 35.583,-0.5 61.783,-35.07 71.153,-69.42 9.36,-34.34 7.82,-71.05 18.39,-105.04 20.39,-65.58 82.63,-111.88 102,-177.77 25.04,-85.14 -27.51,-181.49 6.65,-263.4 14.67,-35.15 43.87,-62.91 57.27,-98.56 19.97,-53.06 1.41,-112.38 -21.05,-164.45 -22.46,-52.07 -49.47,-105.32 -46.25,-161.93 2.08,-36.69 15.32,-78.98 -9.16,-106.38"
         style="fill:#5cc68f;fill-opacity:1;fill-rule:nonzero;stroke:none"
         transform="matrix(0.13333333,0,0,-0.13333333,0,666.66667)" /><path
         id="path137"
         d="m 1041.92,1136.27 c -31.94,49.32 -37.78,114.54 -15.1,168.74 22.88,54.69 71.72,96.56 88.82,153.32 14.74,48.96 3.64,101.8 -11.56,150.62 -12.72,40.87 -28.49,82.69 -23.43,125.2 6.4,53.81 44.91,97.99 85.32,134.1 37.23,33.27 79.22,63.71 127.92,74.73 25.58,5.78 54.64,5.24 75.28,-10.96 17.61,-13.81 25.82,-36.39 30.33,-58.32 12.4,-60.41 3.24,-125.09 25.46,-182.62 21.79,-56.38 72.7,-103.27 73.43,-163.72 0.71,-57.33 -44.34,-104.05 -88.69,-140.4 -44.36,-36.34 -94.13,-73.56 -109.59,-128.78 -13.86,-49.54 3.37,-103.5 -8.95,-153.44 -9.98,-40.48 -38.95,-74.5 -73.85,-97.3 -33.77,-22.049 -78.52,-49.799 -97.43,-0.73 -8.86,22.98 -14.85,45.02 -28.82,65.8 -14.98,22.32 -34.51,41.17 -49.14,63.76"
         style="fill:#71cd98;fill-opacity:1;fill-rule:nonzero;stroke:none"
         transform="matrix(0.13333333,0,0,-0.13333333,0,666.66667)" /><path
         id="path138"
         d="m 1056.35,1015.11 c -20.17,20.01 -27.37,49.47 -43.17,73.09 -29.481,44.04 -85.055,63.01 -120.719,102.22 -19.93,21.91 -33.039,49.94 -37.078,79.29 -6.258,45.49 8.683,93.21 -4.977,137.06 -22.289,71.56 -110.816,104.8 -137.16,174.98 -16.613,44.25 -4.859,93.46 -6.461,140.69 -1.074,31.48 -8.183,62.54 -8.797,94.04 -0.621,31.48 6.395,65.11 28.817,87.22 5.625,5.56 12.808,10.47 20.699,10.07 10.621,-0.54 18.266,-10.22 23.453,-19.51 15.313,-27.44 22.215,-58.64 33.203,-88.09 10.988,-29.44 27.68,-58.85 55.356,-73.75 28.922,-15.56 65.527,-12.93 93.093,-30.78 32.871,-21.3 42.782,-64.86 43.461,-104.01 0.727,-41.54 -5.754,-83.18 -19.058,-122.53 -11.524,-34.09 -28.41,-68.73 -22.731,-104.27 7.602,-47.53 52.379,-79.11 94.829,-101.81 42.45,-22.72 89.69,-45.33 110.76,-88.61 15.21,-31.23 13.64,-68.53 3.22,-101.67 -10.42,-33.14 -28.98,-63.03 -47.36,-92.51 l -59.38,28.88"
         style="fill:#82d3ab;fill-opacity:1;fill-rule:nonzero;stroke:none"
         transform="matrix(0.13333333,0,0,-0.13333333,0,666.66667)" /><path
         id="path139"
         d="m 1173.59,1044.59 c -16.71,5.28 -28.47,20.41 -36.03,36.21 -12.57,26.29 -16.32,56.7 -10.52,85.25 12.11,59.53 62.99,106.48 71.05,166.7 5.9,44.14 -12.21,90.31 0.9,132.87 11.49,37.29 44.74,64.11 59.67,100.15 12.09,29.23 11.17,62.02 17.52,93 6.34,30.99 24.13,63.79 54.94,70.94 11.92,2.76 26.26,0.31 33.05,-9.87 5.05,-7.59 4.74,-17.45 3.76,-26.51 -3.17,-29.22 -11.41,-57.88 -24.26,-84.31 -16.29,-33.49 -40.53,-65.8 -39.72,-103.03 0.69,-31.26 19.41,-60.96 15.48,-91.97 -7.7,-60.84 -94.17,-86.53 -103.48,-147.14 -2.48,-16.18 1.15,-32.59 4.48,-48.63 5.84,-28.16 10.81,-56.91 8.37,-85.57 -5.05,-59.33 -44.3,-114.52 -98.67,-138.758 l 43.46,50.668"
         style="fill:#82d3ab;fill-opacity:1;fill-rule:nonzero;stroke:none"
         transform="matrix(0.13333333,0,0,-0.13333333,0,666.66667)" /><path
         id="path140"
         d="M 1341.31,1022.91 1326.98,901.32 1269.11,411.57 H 986.945 l -59.597,489.75 -14.766,121.59 h 428.728"
         style="fill:#da704e;fill-opacity:1;fill-rule:nonzero;stroke:none"
         transform="matrix(0.13333333,0,0,-0.13333333,0,666.66667)" /><path
         id="path141"
         d="M 1326.98,901.32 H 927.348 l -14.766,121.59 h 428.728 l -14.33,-121.59"
         style="fill:#b45b46;fill-opacity:1;fill-rule:nonzero;stroke:none"
         transform="matrix(0.13333333,0,0,-0.13333333,0,666.66667)" /><path
         id="path142"
         d="M 1366.6,949.371 H 887.27 c -9.704,0 -17.563,7.859 -17.563,17.559 v 99.65 c 0,9.7 7.859,17.56 17.563,17.56 h 479.33 c 9.71,0 17.57,-7.86 17.57,-17.56 v -99.65 c 0,-9.7 -7.86,-17.559 -17.57,-17.559"
         style="fill:#da704e;fill-opacity:1;fill-rule:nonzero;stroke:none"
         transform="matrix(0.13333333,0,0,-0.13333333,0,666.66667)" /><path
         id="path143"
         d="m 5485.56,287.141 c -538.24,0 -974.57,43.718 -974.57,97.66 0,53.937 436.33,97.66 974.57,97.66 538.25,0 974.57,-43.723 974.57,-97.66 0,-53.942 -436.32,-97.66 -974.57,-97.66"
         style="fill:#b2b5d9;fill-opacity:1;fill-rule:nonzero;stroke:none"
         transform="matrix(0.13333333,0,0,-0.13333333,0,666.66667)" /><path
         id="path144"
         d="m 4774.12,605.781 -69.49,-87.082 c 0,0 108.74,-145.449 94.58,-165.32 -53.96,38.43 -258.68,187.461 -258.68,187.461 l 112.27,173.07 121.32,-108.129"
         style="fill:#db474f;fill-opacity:1;fill-rule:nonzero;stroke:none"
         transform="matrix(0.13333333,0,0,-0.13333333,0,666.66667)" /><path
         id="path145"
         d="m 6062.03,610.52 35.04,-114.891 c 0,0 231.45,-51.488 234.89,-75.649 -65.58,-9.32 -355.51,-50.539 -355.51,-50.539 l -69.73,219 155.31,22.079"
         style="fill:#db474f;fill-opacity:1;fill-rule:nonzero;stroke:none"
         transform="matrix(0.13333333,0,0,-0.13333333,0,666.66667)" /><path
         id="path146"
         d="m 4601.73,696.039 178.75,-142.68 c 0,0 453.31,485.911 521.35,605.321 68.14,119.52 165.53,433.92 165.53,433.92 l 192.9,-349.94 217.85,-704.078 114.58,17.18 130.11,19.5 c 0,0 -153.49,565.068 -191.01,735.538 -37.64,170.35 -206.84,711.62 -206.84,711.62 0,0 -278.76,2.42 -543.48,-40.56 -51.78,-142.06 -150.12,-739.2 -150.12,-739.2 L 4601.73,696.039"
         style="fill:#fbc24d;fill-opacity:1;fill-rule:nonzero;stroke:none"
         transform="matrix(0.13333333,0,0,-0.13333333,0,666.66667)" /><path
         id="path147"
         d="m 5047.72,2599.34 c 9.1,-95.79 29.2,-200.39 53.8,-295.79 53.21,-206.41 80,-321.7 80,-321.7 0,0 412.71,-18.91 543.5,40.59 -16.8,74.81 -31.5,149.51 -44.2,221.3 -40.2,227.71 -61,426.2 -69.7,507 -11.4,106.4 -75.8,191.61 -145.4,238.91 -83.8,57.09 -223.4,17.69 -223.4,17.69 0,0 -116.1,-27.2 -171.3,-137.4 -29.6,-59.29 -34,-159 -23.3,-270.6"
         style="fill:#4960b6;fill-opacity:1;fill-rule:nonzero;stroke:none"
         transform="matrix(0.13333333,0,0,-0.13333333,0,666.66667)" /><path
         id="path148"
         d="m 5609.25,2276.23 -4.43,2.01 -363.87,61.06 31.17,309.2 -2.08,134.18 81.68,-368.38 275.78,-38.18 -18.25,-99.89"
         style="fill:#415cb3;fill-opacity:1;fill-rule:nonzero;stroke:none"
         transform="matrix(0.13333333,0,0,-0.13333333,0,666.66667)" /><path
         id="path149"
         d="m 5327.7,1978.99 c -83.86,0 -146.18,2.86 -146.18,2.86 0,0 -26.79,115.29 -80,321.7 -24.6,95.4 -44.7,200 -53.8,295.79 l 18.61,-3.4 135,-249.99 39.62,-6.65 -0.87,-8.62 364.7,-78.91 4.47,24.46 71.57,-32.49 c 12.7,-71.79 27.4,-146.49 44.2,-221.3 -79.97,-36.38 -265.34,-43.45 -397.32,-43.45"
         style="fill:#415cb3;fill-opacity:1;fill-rule:nonzero;stroke:none"
         transform="matrix(0.13333333,0,0,-0.13333333,0,666.66667)" /><path
         id="path150"
         d="m 5604.78,2251.77 -364.7,78.91 0.87,8.62 363.87,-61.06 4.43,-2.01 -4.47,-24.46"
         style="fill:#3c58b0;fill-opacity:1;fill-rule:nonzero;stroke:none"
         transform="matrix(0.13333333,0,0,-0.13333333,0,666.66667)" /><path
         id="path151"
         d="m 5272.12,2648.5 25.36,-268.77 c 0,0 330.79,-72.43 481.1,-67.28 150.31,5.17 194.78,13.34 194.78,13.34 0,0 -46.54,-65.95 -198.2,-97.65 -151.65,-31.7 -552.27,-76.48 -607.06,-23.69 -54.79,52.79 -101.77,391.45 -101.77,391.45 l 205.79,52.6"
         style="fill:#f8a5a6;fill-opacity:1;fill-rule:nonzero;stroke:none"
         transform="matrix(0.13333333,0,0,-0.13333333,0,666.66667)" /><path
         id="path152"
         d="m 5559.69,2267.23 673.51,87.55 -74.07,569.8 -673.52,-87.55 74.08,-569.8"
         style="fill:#f68464;fill-opacity:1;fill-rule:nonzero;stroke:none"
         transform="matrix(0.13333333,0,0,-0.13333333,0,666.66667)" /><path
         id="path153"
         d="m 5493.14,2779.08 673.52,87.56 -7.53,57.94 -673.52,-87.55 7.53,-57.95"
         style="fill:#da704e;fill-opacity:1;fill-rule:nonzero;stroke:none"
         transform="matrix(0.13333333,0,0,-0.13333333,0,666.66667)" /><path
         id="path154"
         d="m 5559.69,2267.23 230.54,29.97 -74.07,569.8 -230.55,-29.97 74.08,-569.8"
         style="fill:#f9b27d;fill-opacity:1;fill-rule:nonzero;stroke:none"
         transform="matrix(0.13333333,0,0,-0.13333333,0,666.66667)" /><path
         id="path155"
         d="m 5716.45,2509.83 -121.16,19.48 8.07,50.13 121.16,-19.49 -8.07,-50.12"
         style="fill:#ffffff;fill-opacity:1;fill-rule:nonzero;stroke:none"
         transform="matrix(0.13333333,0,0,-0.13333333,0,666.66667)" /><path
         id="path156"
         d="m 5493.06,2779.78 230.55,29.97 -7.45,57.25 -230.55,-29.97 7.45,-57.25"
         style="fill:#f68464;fill-opacity:1;fill-rule:nonzero;stroke:none"
         transform="matrix(0.13333333,0,0,-0.13333333,0,666.66667)" /><path
         id="path157"
         d="m 5433.85,3319.27 c 0,0 70.18,32.37 41.6,93.25 20.35,62.08 -61.26,113.48 -106.79,66.22 -39.18,82.76 -128.34,53.08 -133.89,16.18 -58.64,33.72 -61.53,-23.5 -61.53,-23.5 0,0 -83.95,9.76 -78.47,-72.21 -49.49,-16.77 -23.88,-54.78 -1.9,-64.84 -30.06,-27.17 -14.84,-84.61 13.77,-86.06 -30.62,-42.74 26.07,-61.42 26.07,-61.42 0,0 67.77,-84 124.9,-6.81 57.15,77.2 176.24,139.19 176.24,139.19"
         style="fill:#3654ad;fill-opacity:1;fill-rule:nonzero;stroke:none"
         transform="matrix(0.13333333,0,0,-0.13333333,0,666.66667)" /><path
         id="path158"
         d="m 5357.35,3128.45 11.16,-107.88 c 0,0 94.04,-108.01 39.44,-135.31 -57.59,-28.8 -164.13,63.07 -170.4,111.35 -6.28,48.27 -36.23,199.2 -36.23,199.2"
         style="fill:#f8a5a6;fill-opacity:1;fill-rule:nonzero;stroke:none"
         transform="matrix(0.13333333,0,0,-0.13333333,0,666.66667)" /><path
         id="path159"
         d="m 5448.49,3369.86 c 0,0 30.98,-115.94 29.08,-180.79 -1.91,-64.84 -29.01,-126.28 -99.59,-119.95 -70.59,6.33 -138.18,49.22 -161.02,105.68 -29.82,-9.05 -69.13,34.94 -69,73.71 0.12,38.77 34.15,35.45 46.95,16.44 12.8,-19.01 31.03,-39.89 31.03,-39.89 l -3.38,105.49 c 0,0 108.93,-14.66 225.93,39.31"
         style="fill:#f8a5a6;fill-opacity:1;fill-rule:nonzero;stroke:none"
         transform="matrix(0.13333333,0,0,-0.13333333,0,666.66667)" /><path
         id="path160"
         d="m 5482.3,3440.65 -308.89,-100 -95,-30.8 c -44.31,79.3 -15.51,166 70.59,215.4 27.41,15.69 60.6,27.59 99.1,34.29 179.6,31.31 234.2,-118.89 234.2,-118.89"
         style="fill:#6c89ce;fill-opacity:1;fill-rule:nonzero;stroke:none"
         transform="matrix(0.13333333,0,0,-0.13333333,0,666.66667)" /><path
         id="path161"
         d="m 5078.41,3309.85 c -13.94,24.93 -20.64,50.6 -20.61,75.61 0.08,54.53 32.17,105.92 91.2,139.79 -13,-52.81 -15,-120 24.41,-184.6 l -95,-30.8"
         style="fill:#4f6dbe;fill-opacity:1;fill-rule:nonzero;stroke:none"
         transform="matrix(0.13333333,0,0,-0.13333333,0,666.66667)" /><path
         id="path162"
         d="m 5431.12,3290.68 c 0,-6.94 4.41,-12.56 9.84,-12.56 5.44,0 9.84,5.62 9.84,12.56 0,6.93 -4.4,12.55 -9.84,12.55 -5.43,0 -9.84,-5.62 -9.84,-12.55"
         style="fill:#2b4383;fill-opacity:1;fill-rule:nonzero;stroke:none"
         transform="matrix(0.13333333,0,0,-0.13333333,0,666.66667)" /><path
         id="path163"
         d="m 5335.43,3273.03 c 0,-6.93 4.41,-12.55 9.84,-12.55 5.44,0 9.85,5.62 9.85,12.55 0,6.93 -4.41,12.55 -9.85,12.55 -5.43,0 -9.84,-5.62 -9.84,-12.55"
         style="fill:#2b4383;fill-opacity:1;fill-rule:nonzero;stroke:none"
         transform="matrix(0.13333333,0,0,-0.13333333,0,666.66667)" /><path
         id="path164"
         d="m 5406.19,3216.26 c -6.97,0 -14.83,1.06 -19.67,5.08 -2.12,1.77 -2.4,4.93 -0.63,7.05 1.77,2.13 4.93,2.39 7.04,0.64 3.64,-3.04 12.97,-3.08 20.02,-2.42 l -21.87,66.23 c -0.87,2.62 0.56,5.45 3.18,6.31 2.66,0.89 5.45,-0.55 6.31,-3.18 l 25.55,-77.36 -5.62,-1.05 c -1.23,-0.23 -7.32,-1.3 -14.31,-1.3"
         style="fill:#2b4383;fill-opacity:1;fill-rule:nonzero;stroke:none"
         transform="matrix(0.13333333,0,0,-0.13333333,0,666.66667)" /><path
         id="path165"
         d="m 5302.18,3298.23 c -1.53,0 -3.03,0.7 -4.02,2.02 -1.65,2.21 -1.18,5.34 1.04,6.99 27.88,20.73 52.35,16.71 53.39,16.52 2.71,-0.48 4.53,-3.07 4.05,-5.79 -0.48,-2.72 -3.07,-4.52 -5.76,-4.06 -0.22,0.04 -21.49,3.32 -45.72,-14.69 -0.89,-0.67 -1.94,-0.99 -2.98,-0.99"
         style="fill:#2b4383;fill-opacity:1;fill-rule:nonzero;stroke:none"
         transform="matrix(0.13333333,0,0,-0.13333333,0,666.66667)" /><path
         id="path166"
         d="m 5398.97,3326.11 c -2.04,0 -3.95,1.26 -4.69,3.3 -0.95,2.59 0.39,5.46 2.98,6.4 32.64,11.9 54.96,1.02 55.88,0.55 2.47,-1.24 3.47,-4.24 2.24,-6.71 -1.24,-2.47 -4.25,-3.46 -6.7,-2.24 -0.39,0.2 -19.77,9.28 -48,-0.99 l -1.71,-0.31"
         style="fill:#2b4383;fill-opacity:1;fill-rule:nonzero;stroke:none"
         transform="matrix(0.13333333,0,0,-0.13333333,0,666.66667)" /><path
         id="path167"
         d="m 5341.57,3212.97 78.01,-24.43 c 0,0 -21.04,-30.54 -54.29,-14.93 -33.25,15.61 -23.72,39.36 -23.72,39.36"
         style="fill:#ffffff;fill-opacity:1;fill-rule:nonzero;stroke:none"
         transform="matrix(0.13333333,0,0,-0.13333333,0,666.66667)" /><path
         id="path168"
         d="m 5078.36,3309.8 526.42,108.05 c 0,0 -8.1,63.28 -82.41,45.56 -74.3,-17.71 -444.01,-153.61 -444.01,-153.61"
         style="fill:#748ed0;fill-opacity:1;fill-rule:nonzero;stroke:none"
         transform="matrix(0.13333333,0,0,-0.13333333,0,666.66667)" /><path
         id="path169"
         d="m 5458.21,2341.11 344.11,-21.38 c 0,0 43.24,72.22 57.08,68.35 13.86,-3.87 0,-68.35 0,-68.35 h 108.86 c 0,0 -100.17,-52.88 -174.97,-68.36 -74.8,-15.48 -311.6,-10.32 -311.6,-10.32 l -23.48,100.06"
         style="fill:#f8a5a6;fill-opacity:1;fill-rule:nonzero;stroke:none"
         transform="matrix(0.13333333,0,0,-0.13333333,0,666.66667)" /><path
         id="path170"
         d="m 5890.91,2727.72 118.66,15.97 c 13.57,1.83 23.09,14.31 21.26,27.88 l -0.31,2.37 c -1.83,13.57 -14.31,23.09 -27.88,21.26 l -118.67,-15.97 c -13.57,-1.83 -23.08,-14.31 -21.26,-27.87 l 0.32,-2.38 c 1.82,-13.57 14.3,-23.08 27.88,-21.26"
         style="fill:#da704e;fill-opacity:1;fill-rule:nonzero;stroke:none"
         transform="matrix(0.13333333,0,0,-0.13333333,0,666.66667)" /><path
         id="path171"
         d="m 5467.36,1592.6 192.9,-349.94 217.85,-704.078 114.58,17.18 -200.12,568.008 -242.91,682.9 -82.3,-214.07"
         style="fill:#f7964c;fill-opacity:1;fill-rule:nonzero;stroke:none"
         transform="matrix(0.13333333,0,0,-0.13333333,0,666.66667)" /><path
         id="path172"
         d="m 4630.57,574.621 c 0,10.981 8.9,19.859 19.87,19.859 10.96,0 19.86,-8.878 19.86,-19.859 0,-10.973 -8.9,-19.851 -19.86,-19.851 -10.97,0 -19.87,8.878 -19.87,19.851"
         style="fill:#ffffff;fill-opacity:1;fill-rule:nonzero;stroke:none"
         transform="matrix(0.13333333,0,0,-0.13333333,0,666.66667)" /><path
         id="path173"
         d="m 5992.69,489.98 c 0,10.969 8.9,19.86 19.87,19.86 10.96,0 19.86,-8.891 19.86,-19.86 0,-10.96 -8.9,-19.859 -19.86,-19.859 -10.97,0 -19.87,8.899 -19.87,19.859"
         style="fill:#ffffff;fill-opacity:1;fill-rule:nonzero;stroke:none"
         transform="matrix(0.13333333,0,0,-0.13333333,0,666.66667)" /><path
         id="path174"
         d="m 7030.05,188.07 h -729.22 v 750.641 h 729.22 V 188.07"
         style="fill:#f9b27d;fill-opacity:1;fill-rule:nonzero;stroke:none"
         transform="matrix(0.13333333,0,0,-0.13333333,0,666.66667)" /><path
         id="path175"
         d="m 7247.92,188.07 h -582.48 v 750.641 h 582.48 V 188.07"
         style="fill:#f68464;fill-opacity:1;fill-rule:nonzero;stroke:none"
         transform="matrix(0.13333333,0,0,-0.13333333,0,666.66667)" /><path
         id="path176"
         d="M 7247.92,938.711 7442.33,1123.1 H 6863.71 L 6665.44,938.711 h 582.48"
         style="fill:#da704e;fill-opacity:1;fill-rule:nonzero;stroke:none"
         transform="matrix(0.13333333,0,0,-0.13333333,0,666.66667)" /><path
         id="path177"
         d="M 6665.44,938.711 6507.28,1135.4 H 6127.7 l 173.13,-196.689 h 364.61"
         style="fill:#f68464;fill-opacity:1;fill-rule:nonzero;stroke:none"
         transform="matrix(0.13333333,0,0,-0.13333333,0,666.66667)" /><path
         id="path178"
         d="m 6553.57,684.352 h -157 v 41.457 h 157 v -41.457"
         style="fill:#f68464;fill-opacity:1;fill-rule:nonzero;stroke:none"
         transform="matrix(0.13333333,0,0,-0.13333333,0,666.66667)" /><path
         id="path179"
         d="m 7053.89,684.352 h -157.01 v 41.457 h 157.01 v -41.457"
         style="fill:#da704e;fill-opacity:1;fill-rule:nonzero;stroke:none"
         transform="matrix(0.13333333,0,0,-0.13333333,0,666.66667)" /></g></g></svg>
